<svg xmlns="http://www.w3.org/2000/svg" xmlns:xlink="http://www.w3.org/1999/xlink" width="1600" height="900" viewBox="0 0 423.3333 238.125"><defs><linearGradient id="q"><stop offset="0" stop-color="#10d10f" stop-opacity=".7319"/><stop offset="1" stop-color="#090909" stop-opacity="0"/></linearGradient><linearGradient id="p"><stop offset="0" stop-color="#090909" stop-opacity="0"/><stop offset="1" stop-opacity=".9"/></linearGradient><linearGradient id="o"><stop offset="0" stop-color="#090909" stop-opacity="0"/><stop offset="1" stop-opacity=".9"/></linearGradient><linearGradient id="n"><stop offset="0" stop-color="#710979" stop-opacity=".4043"/><stop offset="1" stop-color="#a620d5" stop-opacity=".6851"/></linearGradient><linearGradient id="m"><stop offset="0" stop-color="#e7e710" stop-opacity=".6426"/><stop offset="1" stop-color="#e2eb2d" stop-opacity=".1362"/></linearGradient><linearGradient id="l"><stop offset="0" stop-color="#0d4705" stop-opacity=".5447"/><stop offset="1" stop-color="#33eb2d" stop-opacity=".5532"/></linearGradient><linearGradient id="k"><stop offset="0" stop-color="#0d4705"/><stop offset="1" stop-color="#d40e0e" stop-opacity=".7745"/></linearGradient><linearGradient id="j"><stop offset="0" stop-color="#0d4705"/><stop offset="1" stop-color="#2d96eb" stop-opacity=".6979"/></linearGradient><linearGradient id="i"><stop offset="0" stop-color="#0d4705"/><stop offset="1" stop-color="#11ebc0" stop-opacity=".6979"/></linearGradient><linearGradient id="h"><stop offset="0" stop-color="#0db66d" stop-opacity=".4468"/><stop offset="1" stop-color="#0cadab" stop-opacity=".4851"/></linearGradient><linearGradient id="g"><stop offset="0" stop-color="#0dc1ac" stop-opacity=".2809"/><stop offset="1" stop-color="#555b07" stop-opacity=".7745"/></linearGradient><linearGradient id="f"><stop offset="0" stop-color="#57c10d" stop-opacity=".4"/><stop offset="1" stop-color="#075b21" stop-opacity=".7745"/></linearGradient><linearGradient id="e"><stop offset="0" stop-color="#e7b40f" stop-opacity=".4213"/><stop offset="1" stop-color="#3b9208" stop-opacity=".583"/></linearGradient><linearGradient id="d"><stop offset="0" stop-color="#e7350f" stop-opacity=".4766"/><stop offset="1" stop-color="#0fe7e4" stop-opacity=".617"/></linearGradient><linearGradient id="c"><stop offset="0" stop-color="#0d4705"/><stop offset="1" stop-color="#67880a" stop-opacity=".6979"/></linearGradient><linearGradient id="b"><stop offset="0"/><stop offset="1" stop-opacity=".7404"/></linearGradient><linearGradient id="a"><stop offset="0" stop-color="#007e4e"/><stop offset="1" stop-color="#00442d" stop-opacity=".4766"/></linearGradient><linearGradient xlink:href="#c" id="I" x1="18.0233" x2="20.113" y1="41.3361" y2="41.3361" gradientUnits="userSpaceOnUse"/><linearGradient xlink:href="#d" id="P" x1="30.5613" x2="53.2863" y1="58.9676" y2="58.9676" gradientTransform="translate(.3918)" gradientUnits="userSpaceOnUse"/><linearGradient xlink:href="#e" id="U" x1="70.2648" x2="94.0346" y1="36.5037" y2="36.5037" gradientUnits="userSpaceOnUse"/><linearGradient xlink:href="#f" id="R" x1="30.5613" x2="53.2863" y1="58.9676" y2="58.9676" gradientTransform="translate(77.9704 -9.8606)" gradientUnits="userSpaceOnUse"/><linearGradient xlink:href="#g" id="S" x1="30.5613" x2="53.2863" y1="58.9676" y2="58.9676" gradientTransform="translate(77.9704 -9.8606)" gradientUnits="userSpaceOnUse"/><linearGradient xlink:href="#h" id="Q" x1="30.5613" x2="53.2863" y1="58.9676" y2="58.9676" gradientTransform="translate(187.9387 -25.1412)" gradientUnits="userSpaceOnUse"/><linearGradient xlink:href="#g" id="T" x1="30.5613" x2="53.2863" y1="58.9676" y2="58.9676" gradientTransform="translate(77.9704 -9.8606)" gradientUnits="userSpaceOnUse"/><linearGradient xlink:href="#i" id="J" x1="18.0233" x2="20.113" y1="41.3361" y2="41.3361" gradientUnits="userSpaceOnUse"/><linearGradient xlink:href="#j" id="K" x1="18.0233" x2="20.113" y1="41.3361" y2="41.3361" gradientUnits="userSpaceOnUse"/><linearGradient xlink:href="#k" id="O" x1="18.0233" x2="20.113" y1="41.3361" y2="41.3361" gradientUnits="userSpaceOnUse"/><linearGradient xlink:href="#l" id="L" x1="18.0233" x2="20.113" y1="41.3361" y2="41.3361" gradientUnits="userSpaceOnUse"/><linearGradient xlink:href="#m" id="N" x1="18.0233" x2="20.113" y1="41.3361" y2="41.3361" gradientUnits="userSpaceOnUse"/><linearGradient xlink:href="#n" id="M" x1="18.0233" x2="20.113" y1="41.3361" y2="41.3361" gradientUnits="userSpaceOnUse"/><radialGradient xlink:href="#a" id="s" cx="214.2537" cy="121.5336" r="214.6231" fx="214.2537" fy="121.5336" gradientTransform="matrix(1 0 0 .5577 0 53.7593)" gradientUnits="userSpaceOnUse"/><radialGradient xlink:href="#b" id="t" cx="52.6399" cy="37.8638" r="24.7444" fx="52.6399" fy="37.8638" gradientTransform="matrix(1 0 0 .985 -32.3964 27.2197)" gradientUnits="userSpaceOnUse"/><radialGradient xlink:href="#b" id="D" cx="52.6399" cy="37.8638" r="24.7444" fx="52.6399" fy="37.8638" gradientTransform="matrix(1 0 0 .985 77.2092 20.7551)" gradientUnits="userSpaceOnUse"/><radialGradient xlink:href="#b" id="B" cx="52.6399" cy="37.8638" r="24.7444" fx="52.6399" fy="37.8638" gradientTransform="matrix(1 0 0 .985 5.541 -3.4982)" gradientUnits="userSpaceOnUse"/><radialGradient xlink:href="#b" id="E" cx="52.6399" cy="37.8638" r="24.7444" fx="52.6399" fy="37.8638" gradientTransform="matrix(1 0 0 .985 -35.0933 -19.3825)" gradientUnits="userSpaceOnUse"/><radialGradient xlink:href="#b" id="C" cx="52.6399" cy="37.8638" r="24.7444" fx="52.6399" fy="37.8638" gradientTransform="matrix(1 0 0 .985 5.541 -3.4982)" gradientUnits="userSpaceOnUse"/><radialGradient xlink:href="#b" id="w" cx="52.6399" cy="37.8638" r="24.7444" fx="52.6399" fy="37.8638" gradientTransform="matrix(1 0 0 .985 253.2258 167.7201)" gradientUnits="userSpaceOnUse"/><radialGradient xlink:href="#b" id="A" cx="52.6399" cy="37.8638" r="24.7444" fx="52.6399" fy="37.8638" gradientTransform="matrix(1 0 0 .985 302.7258 154.0522)" gradientUnits="userSpaceOnUse"/><radialGradient xlink:href="#b" id="G" cx="52.6399" cy="37.8638" r="24.7444" fx="52.6399" fy="37.8638" gradientTransform="matrix(1 0 0 .985 352.5952 166.9813)" gradientUnits="userSpaceOnUse"/><radialGradient xlink:href="#b" id="H" cx="52.6399" cy="37.8638" r="24.7444" fx="52.6399" fy="37.8638" gradientTransform="matrix(1 0 0 .985 287.9497 187.2985)" gradientUnits="userSpaceOnUse"/><radialGradient xlink:href="#b" id="x" cx="52.6399" cy="37.8638" r="24.7444" fx="52.6399" fy="37.8638" gradientTransform="matrix(1 0 0 .985 182.3004 167.7201)" gradientUnits="userSpaceOnUse"/><radialGradient xlink:href="#b" id="z" cx="52.6399" cy="37.8638" r="24.7444" fx="52.6399" fy="37.8638" gradientTransform="matrix(1 0 0 .985 134.278 182.8656)" gradientUnits="userSpaceOnUse"/><radialGradient xlink:href="#b" id="y" cx="52.6399" cy="37.8638" r="24.7444" fx="52.6399" fy="37.8638" gradientTransform="matrix(1 0 0 .985 220.7183 183.9738)" gradientUnits="userSpaceOnUse"/><radialGradient xlink:href="#b" id="v" cx="52.6399" cy="37.8638" r="24.7444" fx="52.6399" fy="37.8638" gradientTransform="matrix(1 0 0 .985 150.5317 9.6156)" gradientUnits="userSpaceOnUse"/><radialGradient xlink:href="#b" id="u" cx="52.6399" cy="37.8638" r="24.7444" fx="52.6399" fy="37.8638" gradientTransform="matrix(1 0 0 .985 47.099 -15.8732)" gradientUnits="userSpaceOnUse"/><radialGradient xlink:href="#b" id="F" cx="52.6399" cy="37.8638" r="24.7444" fx="52.6399" fy="37.8638" gradientTransform="matrix(1 0 0 .985 114.3302 -9.5933)" gradientUnits="userSpaceOnUse"/><radialGradient xlink:href="#o" id="V" cx="236.7632" cy="110.84" r="64.1466" fx="236.7632" fy="110.84" gradientTransform="matrix(1 0 0 1.0078 0 -.8303)" gradientUnits="userSpaceOnUse"/><radialGradient xlink:href="#p" id="W" cx="236.7632" cy="110.84" r="64.1466" fx="236.7632" fy="110.84" gradientTransform="matrix(1 0 0 1.0078 0 -.8303)" gradientUnits="userSpaceOnUse"/><radialGradient xlink:href="#q" id="X" cx="219.7948" cy="125.597" r="12.9291" fx="219.7948" fy="125.597" gradientTransform="matrix(2.2286 0 0 2.2286 -270.7724 -153.9355)" gradientUnits="userSpaceOnUse"/><filter id="r" width="1.1062" height="1.1905" x="-.0531" y="-.0952" color-interpolation-filters="sRGB"><feTurbulence baseFrequency="0.002 0.107"/><feColorMatrix result="result91" values="2 0 0 0 0 0 0 0 0 0 0 0 0 0 0 0 0 0 0.5 0.5"/><feDisplacementMap in="SourceGraphic" in2="result91" scale="14.3" xChannelSelector="R"/></filter></defs><g filter="url(#r)" transform="matrix(1.0164 0 0 1.0164 -7.282 .2253)"><path fill="url(#s)" d="M-.3694 1.847h429.2463v239.3731H-.3694z"/></g><ellipse cx="20.2435" cy="64.5182" fill="url(#t)" opacity=".3" rx="12.7444" ry="12.375"/><ellipse cx="99.7388" cy="21.4254" fill="url(#u)" opacity=".3" rx="12.7444" ry="12.375"/><ellipse cx="203.1716" cy="46.9142" fill="url(#v)" opacity=".3" rx="12.7444" ry="12.375"/><ellipse cx="305.8657" cy="205.0187" fill="url(#w)" opacity=".3" rx="12.7444" ry="12.375"/><ellipse cx="234.9403" cy="205.0187" fill="url(#x)" opacity=".3" rx="12.7444" ry="12.375"/><ellipse cx="273.3582" cy="221.2724" fill="url(#y)" opacity=".3" rx="12.7444" ry="12.375"/><ellipse cx="186.9179" cy="220.1642" fill="url(#z)" opacity=".3" rx="12.7444" ry="12.375"/><ellipse cx="355.3657" cy="191.3507" fill="url(#A)" opacity=".3" rx="12.7444" ry="12.375"/><ellipse cx="58.181" cy="33.8004" fill="url(#B)" opacity=".3" rx="12.7444" ry="12.375" transform="matrix(1.288 0 0 1.288 -13.4858 6.742)"/><ellipse cx="58.181" cy="33.8004" fill="url(#C)" opacity=".3" rx="12.7444" ry="12.375" transform="matrix(1.288 0 0 1.288 174.5191 -21.3304)"/><ellipse cx="129.8491" cy="58.0537" fill="url(#D)" opacity=".3" rx="12.7444" ry="12.375" style="mix-blend-mode:normal"/><ellipse cx="17.5466" cy="17.916" fill="url(#E)" opacity=".3" rx="12.7444" ry="12.375"/><ellipse cx="166.9701" cy="27.7052" fill="url(#F)" opacity=".3" rx="12.7444" ry="12.375"/><ellipse cx="405.2351" cy="204.2799" fill="url(#G)" opacity=".3" rx="12.7444" ry="12.375"/><ellipse cx="340.5895" cy="224.597" fill="url(#H)" opacity=".3" rx="12.7444" ry="12.375"/><path fill="#df4545" fill-opacity=".3859" d="m18.807 27.4268.7836 28.341.1306-.1306z" opacity=".3"/><path fill="url(#I)" d="m18.0233 27.688 2.0897 27.5574-.653-27.8186Z" style="mix-blend-mode:normal" transform="matrix(1 0 0 1.0336 0 -.8666)"/><path fill="url(#J)" d="m18.0233 27.688 2.0897 27.5574-.653-27.8186Z" style="mix-blend-mode:normal" transform="matrix(.3412 1.185 -1.2249 .3526 256.4345 175.88)"/><path fill="url(#K)" d="m18.0233 27.688 2.0897 27.5574-.653-27.8186Z" style="mix-blend-mode:normal" transform="matrix(-.5923 .8505 -.879 -.6122 299.7371 222.8808)"/><path fill="url(#L)" d="m18.0233 27.688 2.0897 27.5574-.653-27.8186Z" style="mix-blend-mode:normal" transform="matrix(-.5672 .8145 -.8418 -.5863 367.2715 220.6104)"/><path fill="url(#M)" d="m18.0233 27.688 2.0897 27.5574-.653-27.8186Z" style="mix-blend-mode:normal" transform="matrix(-.3368 1.0514 -1.0867 -.3481 433.5387 190.034)"/><path fill="url(#N)" d="m18.0233 27.688 2.0897 27.5574-.653-27.8186Z" style="mix-blend-mode:normal" transform="matrix(.6862 .4397 -.4545 .7093 351.5556 172.5982)"/><path fill="url(#O)" d="m18.0233 27.688 2.0897 27.5574-.653-27.8186Z" style="mix-blend-mode:normal" transform="matrix(-.5424 -.6845 .7456 -.532 271.4482 249.3902)"/><path fill="url(#P)" d="m53.2863 54.723-22.3332 8.4892 22.725-7.1832Z"/><path fill="url(#Q)" d="m240.8332 29.5817-22.3333 8.4893 22.725-7.1832z" transform="matrix(1.4491 -.2865 .2865 1.4491 -115.5352 53.2023)"/><path fill="url(#R)" d="m130.8649 44.8624-22.3333 8.4892 22.725-7.1832Z" transform="matrix(.6227 1.3009 -1.374 .5896 105.9085 -147.0498)"/><path fill="url(#S)" d="m130.8649 44.8624-22.3333 8.4892 22.725-7.1832Z" transform="matrix(-1.3385 .537 -.4993 -1.4093 335.8494 47.1271)"/><path fill="url(#T)" d="m130.8649 44.8624-22.3333 8.4892 22.725-7.1832Z" transform="matrix(.7152 1.006 -1.0725 .698 150.3191 -118.0429)"/><path fill="url(#U)" d="m92.3368 26.2513-22.072 20.5048L94.0346 27.688Z" transform="matrix(1.124 0 0 1.124 -10.2848 -2.9577)"/><g opacity=".5" transform="matrix(-.5001 .53 -.53 -.5001 404.5792 66.4625)"><path fill="url(#V)" d="m303.0342 100.187-58.7616 27.5845 21.343 41.4916-44.3928-47.3615-32.8655 33.12 31.3253-56.8555-41.655-21.0224 63.7529 12.2229 7.1213-46.1126 8.0761 64.4097z" opacity="1" transform="matrix(1.5699 .159 -.159 1.5699 -136.4168 -83.0564)"/><path fill="url(#W)" d="m303.0342 100.187-58.7616 27.5845 21.343 41.4916-44.3928-47.3615-32.8655 33.12 31.3253-56.8555-41.655-21.0224 63.7529 12.2229 7.1213-46.1126 8.0761 64.4097z" opacity=".8094" transform="scale(1.578) rotate(35.6848 234.8728 -54.7596)"/><circle cx="219.0559" cy="125.9664" r="28.8134" fill="url(#X)" opacity=".8094"/></g></svg>