<svg xmlns="http://www.w3.org/2000/svg" xmlns:xlink="http://www.w3.org/1999/xlink" width="5291.3384" height="3401.5747" viewBox="0 0 1400 900"><defs><linearGradient id="N"><stop offset="0" stop-color="#e1ee27"/><stop offset="1" stop-color="#e1ee27" stop-opacity="0"/></linearGradient><linearGradient id="y"><stop offset="0" stop-color="#26a80c"/><stop offset="1" stop-color="#0c2ea8" stop-opacity="0"/></linearGradient><linearGradient id="z"><stop offset="0" stop-color="#26a80c"/><stop offset="1" stop-color="#0c2ea8" stop-opacity="0"/></linearGradient><linearGradient id="A"><stop offset="0" stop-color="#26a80c"/><stop offset="1" stop-color="#0c2ea8" stop-opacity="0"/></linearGradient><linearGradient id="B"><stop offset="0" stop-color="#26a80c"/><stop offset="1" stop-color="#0c2ea8" stop-opacity="0"/></linearGradient><linearGradient id="C"><stop offset="0" stop-color="#26a80c"/><stop offset="1" stop-color="#0c2ea8" stop-opacity="0"/></linearGradient><linearGradient id="D"><stop offset="0" stop-color="#26a80c"/><stop offset="1" stop-color="#0c2ea8" stop-opacity="0"/></linearGradient><linearGradient id="E"><stop offset="0" stop-color="#26a80c"/><stop offset="1" stop-color="#0c2ea8" stop-opacity="0"/></linearGradient><linearGradient id="F"><stop offset="0" stop-color="#26a80c"/><stop offset="1" stop-color="#0c2ea8" stop-opacity="0"/></linearGradient><linearGradient id="G"><stop offset="0" stop-color="#26a80c"/><stop offset="1" stop-color="#0c2ea8" stop-opacity="0"/></linearGradient><linearGradient id="H"><stop offset="0" stop-color="#26a80c"/><stop offset="1" stop-color="#0c2ea8" stop-opacity="0"/></linearGradient><linearGradient id="I"><stop offset="0" stop-color="#26a80c"/><stop offset="1" stop-color="#1143ef" stop-opacity="0"/></linearGradient><linearGradient id="J"><stop offset="0" stop-color="#26a80c"/><stop offset="1" stop-color="#0c2ea8" stop-opacity="0"/></linearGradient><linearGradient id="K"><stop offset="0" stop-color="#26a80c"/><stop offset="1" stop-color="#0c2ea8" stop-opacity="0"/></linearGradient><linearGradient id="L"><stop offset="0" stop-color="#26a80c"/><stop offset="1" stop-color="#0c2ea8" stop-opacity="0"/></linearGradient><linearGradient id="M"><stop offset="0" stop-color="#26a80c"/><stop offset="1" stop-color="#0c2ea8" stop-opacity="0"/></linearGradient><linearGradient id="x"><stop offset="0" stop-color="#26a80c"/><stop offset="1" stop-color="#0c2ea8" stop-opacity="0"/></linearGradient><linearGradient id="v"><stop offset="0" stop-color="#c4cb19"/><stop offset="1" stop-color="#c4cb19" stop-opacity="0"/></linearGradient><linearGradient id="w"><stop offset="0" stop-color="#cb8919"/><stop offset="1" stop-color="#cb8919" stop-opacity="0"/></linearGradient><linearGradient id="u"><stop offset="0" stop-color="#19a9cb"/><stop offset="1" stop-color="#19a9cb" stop-opacity="0"/></linearGradient><linearGradient id="s"><stop offset="0" stop-color="#e0e814" stop-opacity=".5"/><stop offset="1" stop-color="#485e11" stop-opacity="0"/></linearGradient><linearGradient id="r"><stop offset="0" stop-color="#0daef8" stop-opacity=".6"/><stop offset="1" stop-color="#8febeb" stop-opacity="0"/></linearGradient><linearGradient id="t"><stop offset="0" stop-color="#fffc32"/><stop offset="1" stop-color="#bdcb19" stop-opacity=".1059"/></linearGradient><linearGradient id="q"><stop offset="0" stop-color="#d37d19"/><stop offset="1" stop-color="#f29221" stop-opacity="0"/></linearGradient><linearGradient id="p"><stop offset="0" stop-color="#d37d19" stop-opacity=".6"/><stop offset="1" stop-color="#d37d19" stop-opacity="0"/></linearGradient><linearGradient id="o"><stop offset="0" stop-color="#0daef8"/><stop offset="1" stop-color="#8febeb" stop-opacity=".0565"/></linearGradient><linearGradient id="n"><stop offset="0" stop-color="#e88514" stop-opacity=".851"/><stop offset="1" stop-color="#5e4511" stop-opacity=".2549"/></linearGradient><linearGradient id="i"><stop offset="0" stop-color="#e8ff00"/><stop offset="1" stop-color="#dc00ff" stop-opacity="0"/></linearGradient><linearGradient id="h"><stop offset="0" stop-color="#ff0"/><stop offset="1" stop-color="#ff191e" stop-opacity="0"/></linearGradient><linearGradient id="j"><stop offset="0" stop-color="#f23b00"/><stop offset="1" stop-color="#f2b000" stop-opacity="0"/></linearGradient><linearGradient id="l"><stop offset="0" stop-color="#00fff6"/><stop offset="1" stop-color="#ffde00" stop-opacity="0"/></linearGradient><linearGradient id="k"><stop offset="0" stop-color="#ff0"/><stop offset="1" stop-color="#8600ff" stop-opacity="0"/></linearGradient><linearGradient id="m"><stop offset="0" stop-color="#f23b00"/><stop offset="1" stop-color="#ee00f2" stop-opacity="0"/></linearGradient><linearGradient id="g"><stop offset="0" stop-color="#798804" stop-opacity="0"/><stop offset="1" stop-color="#fffc43"/></linearGradient><linearGradient id="f"><stop offset="0" stop-color="#fffc32"/><stop offset="1" stop-opacity=".0161"/></linearGradient><linearGradient id="e"><stop offset="0" stop-color="#10a800" stop-opacity=".8072"/><stop offset="1" stop-color="#207920" stop-opacity=".0763"/></linearGradient><linearGradient id="d"><stop offset="0" stop-color="#00fff6"/><stop offset="1" stop-color="#00fff6" stop-opacity="0"/></linearGradient><linearGradient id="c"><stop offset="0" stop-color="#f23b00"/><stop offset="1" stop-color="#f23b00" stop-opacity="0"/></linearGradient><linearGradient id="b"><stop offset="0" stop-color="#ff0"/><stop offset="1" stop-color="#ff0" stop-opacity="0"/></linearGradient><linearGradient id="a"><stop offset="0" stop-color="#e0e814" stop-opacity=".8514"/><stop offset="1" stop-color="#485e11" stop-opacity=".253"/></linearGradient><linearGradient xlink:href="#e" id="ae" x1="941.45" x2="993.2214" y1="649.5696" y2="649.5696" gradientUnits="userSpaceOnUse"/><linearGradient xlink:href="#g" id="ai" x1="106.2661" x2="329.8973" y1="213.7396" y2="213.7396" gradientUnits="userSpaceOnUse"/><linearGradient xlink:href="#e" id="aj" x1="941.45" x2="993.2214" y1="649.5696" y2="649.5696" gradientTransform="matrix(1 0 0 .8643 -367.7805 138.611)" gradientUnits="userSpaceOnUse"/><linearGradient xlink:href="#e" id="an" x1="941.45" x2="993.2214" y1="649.5696" y2="649.5696" gradientTransform="matrix(1 0 0 .6336 -147.8844 349.6024)" gradientUnits="userSpaceOnUse"/><linearGradient xlink:href="#p" id="V" x1="-683.1118" x2="-677.9866" y1="664.9353" y2="664.9353" gradientTransform="translate(16.4541 .9345)" gradientUnits="userSpaceOnUse"/><linearGradient xlink:href="#r" id="Z" x1="-683.1118" x2="-677.9866" y1="664.9353" y2="664.9353" gradientTransform="matrix(1.0842 0 0 1.1802 -303.748 227.623)" gradientUnits="userSpaceOnUse"/><linearGradient xlink:href="#s" id="aa" x1="-683.1118" x2="-677.9866" y1="664.9353" y2="664.9353" gradientTransform="matrix(.864 0 0 .6579 9.5322 103.0786)" gradientUnits="userSpaceOnUse"/><linearGradient xlink:href="#u" id="ac" x1="735.0088" x2="648.0184" y1="176.4522" y2="55.6035" gradientUnits="userSpaceOnUse"/><linearGradient xlink:href="#v" id="ad" x1="871.0039" x2="743.1812" y1="288.1445" y2="62.6697" gradientUnits="userSpaceOnUse"/><linearGradient xlink:href="#w" id="ab" x1="496.0721" x2="496.0261" y1="229.8113" y2="54.2055" gradientUnits="userSpaceOnUse"/><linearGradient xlink:href="#N" id="P" x1="-42.234" x2="1453.6652" y1="452.312" y2="452.312" gradientTransform="translate(43.5963 138.9633)" gradientUnits="userSpaceOnUse"/><radialGradient xlink:href="#a" id="R" cx="852.3973" cy="297.9045" r="141.0069" fx="852.3973" fy="297.9045" gradientTransform="matrix(1 0 0 .8744 0 44.2347)" gradientUnits="userSpaceOnUse"/><radialGradient xlink:href="#b" id="af" cx="4382.4465" cy="2721.1943" r="375.3891" fx="4382.4465" fy="2721.1943" gradientTransform="matrix(1 0 0 1.0176 0 -47.763)" gradientUnits="userSpaceOnUse"/><radialGradient xlink:href="#c" id="ah" cx="4382.4465" cy="2721.1943" r="375.3891" fx="4382.4465" fy="2721.1943" gradientTransform="matrix(1 0 0 1.0176 0 -47.763)" gradientUnits="userSpaceOnUse"/><radialGradient xlink:href="#d" id="ag" cx="4382.4465" cy="2721.1943" r="375.3891" fx="4382.4465" fy="2721.1943" gradientTransform="matrix(1 0 0 1.0176 0 -47.763)" gradientUnits="userSpaceOnUse"/><radialGradient xlink:href="#f" id="U" cx="401.6459" cy="263.4227" r="205.7202" fx="401.6459" fy="263.4227" gradientTransform="matrix(1.8674 -.5006 .2217 1.9846 -445.1296 -83.4646)" gradientUnits="userSpaceOnUse"/><radialGradient xlink:href="#h" id="ak" cx="4382.4463" cy="2721.1943" r="375.3891" fx="4382.4463" fy="2721.1943" gradientTransform="matrix(1 0 0 1.0176 0 -47.763)" gradientUnits="userSpaceOnUse"/><radialGradient xlink:href="#i" id="al" cx="4382.4463" cy="2721.1943" r="375.3891" fx="4382.4463" fy="2721.1943" gradientTransform="matrix(1 .0758 -.077 1.0146 209.3522 -372.1366)" gradientUnits="userSpaceOnUse"/><radialGradient xlink:href="#j" id="am" cx="4382.4463" cy="2721.1943" r="375.3891" fx="4382.4463" fy="2721.1943" gradientTransform="matrix(1 0 0 1.0176 0 -47.763)" gradientUnits="userSpaceOnUse"/><radialGradient xlink:href="#k" id="ao" cx="4382.4463" cy="2721.1943" r="375.3891" fx="4382.4463" fy="2721.1943" gradientTransform="matrix(1 0 0 1.0176 0 -47.763)" gradientUnits="userSpaceOnUse"/><radialGradient xlink:href="#l" id="ap" cx="4382.4463" cy="2721.1943" r="375.3891" fx="4382.4463" fy="2721.1943" gradientTransform="matrix(1 0 0 1.0176 0 -47.763)" gradientUnits="userSpaceOnUse"/><radialGradient xlink:href="#m" id="aq" cx="4382.4463" cy="2721.1943" r="375.3891" fx="4382.4463" fy="2721.1943" gradientTransform="matrix(1 0 0 1.0176 0 -47.763)" gradientUnits="userSpaceOnUse"/><radialGradient xlink:href="#n" id="S" cx="852.3973" cy="297.9045" r="141.0069" fx="852.3973" fy="297.9045" gradientTransform="matrix(1 0 0 .8744 -376.3934 156.4612)" gradientUnits="userSpaceOnUse"/><radialGradient xlink:href="#o" id="T" cx="669.6545" cy="458.1627" r="113.2486" fx="669.6545" fy="458.1627" gradientTransform="matrix(.688 .9638 -.869 .6202 647.1229 -473.5547)" gradientUnits="userSpaceOnUse"/><radialGradient xlink:href="#q" id="W" cx="497.7103" cy="389.3031" r="15.4259" fx="497.7103" fy="389.3031" gradientTransform="matrix(1 0 0 1.0376 0 -14.654)" gradientUnits="userSpaceOnUse"/><radialGradient xlink:href="#d" id="X" cx="497.7103" cy="389.3031" r="15.4259" fx="497.7103" fy="389.3031" gradientTransform="matrix(1 0 0 1.0376 216.8608 41.543)" gradientUnits="userSpaceOnUse"/><radialGradient xlink:href="#t" id="Y" cx="497.7103" cy="389.3031" r="15.4259" fx="497.7103" fy="389.3031" gradientTransform="matrix(1 0 0 1.0376 357.8677 -115.8126)" gradientUnits="userSpaceOnUse"/><radialGradient xlink:href="#x" id="ar" cx="6240.3242" cy="2524.2874" r="303.2334" fx="6240.3242" fy="2524.2876" gradientTransform="matrix(-3.2088 4.0807 -3.4063 -2.6785 33672.985 -16858.86)" gradientUnits="userSpaceOnUse"/><radialGradient xlink:href="#y" id="as" cx="6134.7671" cy="2439.9153" r="303.2334" fx="6134.7671" fy="2439.9153" gradientTransform="matrix(-3.2088 4.0807 -3.4063 -2.6785 32941.297 -16751.344)" gradientUnits="userSpaceOnUse"/><radialGradient xlink:href="#z" id="at" cx="6129.6206" cy="2676.6541" r="303.2334" fx="6129.6206" fy="2676.6541" gradientTransform="matrix(-3.2088 4.0807 -3.4063 -2.6785 33726.05 -15823.362)" gradientUnits="userSpaceOnUse"/><radialGradient xlink:href="#A" id="au" cx="6000.8872" cy="2877.6587" r="303.2334" fx="6000.8872" fy="2877.6589" gradientTransform="matrix(-3.2088 4.0807 -3.4063 -2.6785 33868.986 -14528.023)" gradientUnits="userSpaceOnUse"/><radialGradient xlink:href="#B" id="av" cx="5868.1382" cy="2944.5823" r="303.2334" fx="5868.1382" fy="2944.5823" gradientTransform="matrix(-3.2088 4.0807 -3.4063 -2.6785 33538.132 -13729.779)" gradientUnits="userSpaceOnUse"/><radialGradient xlink:href="#C" id="aw" cx="6145.0659" cy="2439.9197" r="303.2334" fx="6145.0659" fy="2439.9197" gradientTransform="matrix(-3.2088 4.0807 -3.4063 -2.6785 32984.713 -16793.402)" gradientUnits="userSpaceOnUse"/><radialGradient xlink:href="#D" id="ax" cx="5980.2925" cy="2600.7209" r="303.2334" fx="5980.2925" fy="2600.7209" gradientTransform="matrix(-3.2088 4.0807 -3.4063 -2.6785 32838.892 -15504.876)" gradientUnits="userSpaceOnUse"/><radialGradient xlink:href="#E" id="ay" cx="5867.0127" cy="2752.5859" r="303.2334" fx="5867.0127" fy="2752.5859" gradientTransform="matrix(-3.2088 4.0807 -3.4063 -2.6785 32879.487 -14460.877)" gradientUnits="userSpaceOnUse"/><radialGradient xlink:href="#F" id="az" cx="5697.0884" cy="2922.3228" r="303.2334" fx="5697.0884" fy="2922.323" gradientTransform="matrix(-3.2088 4.0807 -3.4063 -2.6785 32742.377 -13117.051)" gradientUnits="userSpaceOnUse"/><radialGradient xlink:href="#G" id="aA" cx="6016.3389" cy="2332.7156" r="303.2334" fx="6016.3384" fy="2332.7156" gradientTransform="matrix(-3.2088 4.0807 -3.4063 -2.6785 32077.695 -16678.772)" gradientUnits="userSpaceOnUse"/><radialGradient xlink:href="#H" id="aB" cx="5794.9224" cy="2547.1216" r="303.2334" fx="5794.9224" fy="2547.1216" gradientTransform="matrix(-3.2088 4.0807 -3.4063 -2.6785 31876.156 -14953.842)" gradientUnits="userSpaceOnUse"/><radialGradient xlink:href="#I" id="aC" cx="5633.9482" cy="2708.1223" r="303.2334" fx="5633.9482" fy="2708.1226" gradientTransform="matrix(-.5518 .5507 -3.1833 -3.1898 16273.633 7427.0418)" gradientUnits="userSpaceOnUse"/><radialGradient xlink:href="#J" id="aD" cx="5522.0161" cy="2806.1953" r="303.2334" fx="5522.0161" fy="2806.1951" gradientTransform="matrix(-3.2088 4.0807 -3.4063 -2.6785 31609.988 -12847.574)" gradientUnits="userSpaceOnUse"/><radialGradient xlink:href="#K" id="aE" cx="5681.6411" cy="2305.9177" r="303.2334" fx="5681.6411" fy="2305.9177" gradientTransform="matrix(-3.2088 4.0807 -3.4063 -2.6785 30577.797 -15415.729)" gradientUnits="userSpaceOnUse"/><radialGradient xlink:href="#L" id="aF" cx="5501.4209" cy="2511.3835" r="303.2334" fx="5501.4209" fy="2511.3835" gradientTransform="matrix(-3.2088 4.0807 -3.4063 -2.6785 30519.119 -13893.06)" gradientUnits="userSpaceOnUse"/><radialGradient xlink:href="#M" id="aG" cx="5388.1348" cy="2667.7075" r="303.2334" fx="5388.1348" fy="2667.7075" gradientTransform="matrix(-3.2088 4.0807 -3.4063 -2.6785 30574.796 -12831.825)" gradientUnits="userSpaceOnUse" spreadMethod="reflect"/><radialGradient xlink:href="#y" id="aH" cx="5388.1348" cy="2667.7075" r="303.2334" fx="5388.1348" fy="2667.7075" gradientTransform="matrix(-3.2088 4.0807 -3.4063 -2.6785 30574.796 -12831.825)" gradientUnits="userSpaceOnUse" spreadMethod="reflect"/><radialGradient xlink:href="#y" id="aI" cx="5388.1348" cy="2667.7075" r="303.2334" fx="5388.1348" fy="2667.7075" gradientTransform="matrix(-3.2088 4.0807 -3.4063 -2.6785 30574.796 -12831.825)" gradientUnits="userSpaceOnUse" spreadMethod="reflect"/><radialGradient xlink:href="#l" id="O" cx="701.4543" cy="837.2477" r="747.9496" fx="701.4543" fy="837.2477" gradientTransform="matrix(.9994 .034 -.0328 .9629 71.4534 5.9489)" gradientUnits="userSpaceOnUse"/><filter id="Q" width="1.1068" height="1.168" x="-.0534" y="-.084" color-interpolation-filters="sRGB"><feGaussianBlur stdDeviation="33.2739"/></filter></defs><rect width="1495.8992" height="950.9449" x="1.3624" y="115.8028" fill="url(#O)" fill-rule="evenodd" stroke="url(#P)" stroke-dasharray="0,2.915" stroke-dashoffset="2.65" stroke-opacity=".7711" stroke-width=".265" filter="url(#Q)" opacity=".5911" ry="5.098" style="mix-blend-mode:darken"/><g fill-rule="evenodd"><path fill="url(#R)" stroke="#27ecee" stroke-dasharray="0,11.0173" stroke-dashoffset="10.0157" stroke-opacity=".7711" stroke-width="1.0016" d="M940.1522 470.6976c-53.7094-14.0057-92.4688-56.5497-97.6205-107.1526-5.1517-50.6029 24.3597-98.8968 74.3283-121.6346 49.9687-22.7377 64.958-16.7551 106.3928 17.3375" style="mix-blend-mode:difference"/><path fill="url(#S)" stroke="#27ecee" stroke-dasharray="0,11.0173" stroke-dashoffset="10.0157" stroke-opacity=".7711" stroke-width="1.0016" d="M563.7588 582.924c-53.6831-13.9988-92.4336-56.5092-97.6135-107.0848-5.18-50.5755 24.271-98.8646 74.1876-121.6414 49.9166-22.7768 62.032 1.3004 103.5085 35.314" style="mix-blend-mode:difference"/><path fill="url(#T)" stroke="#27ecee" stroke-dasharray="0,11.0173" stroke-dashoffset="10.0157" stroke-opacity=".7711" stroke-width="1.0016" d="M778.2885 651.4307c-55.1089-14.3707-94.3201-58.7192-97.929-110.7593-3.609-52.04 29.1646-100.5184 81.8514-121.0735 52.6867-20.5551 57.1915.1756 96.1602 38.4205" style="mix-blend-mode:difference"/><path fill="url(#U)" stroke="#27ecee" stroke-dasharray="0,2.91499" stroke-dashoffset="2.65" stroke-opacity=".7711" stroke-width=".265" d="M383.0554 241.159s-38.502 201.6283-122.5548 201.6283c-84.0528 0-250.964-93.6784-250.9639-209.2365 0-115.558 171.9506-207.675 256.0033-207.675 84.0528 0 117.5154 215.2833 117.5154 215.2833z"/><rect width="5.1252" height="332.2162" x="-666.6576" y="499.7617" fill="url(#V)" stroke="#4a7d36" stroke-dasharray="0,3.37943" stroke-dashoffset="3.0722" stroke-opacity=".8" stroke-width=".3072" ry="7.5131" transform="matrix(-.7439 .6683 .0003 1 0 0)"/><ellipse cx="497.7103" cy="389.3031" fill="url(#W)" stroke="#4a7d36" stroke-dasharray="0,2.91499" stroke-dashoffset="2.65" stroke-opacity=".8" stroke-width=".265" rx="15.4259" ry="16.0065"/><ellipse cx="714.571" cy="445.5" fill="url(#X)" stroke="#4a7d36" stroke-dasharray="0,2.91499" stroke-dashoffset="2.65" stroke-opacity=".8" stroke-width=".265" rx="15.4259" ry="16.0065"/><ellipse cx="855.578" cy="288.1445" fill="url(#Y)" stroke="#4a7d36" stroke-dasharray="0,2.91499" stroke-dashoffset="2.65" stroke-opacity=".8" stroke-width=".265" rx="15.4259" ry="16.0065"/><rect width="5.5568" height="392.0905" x="-1044.3865" y="816.3522" fill="url(#Z)" stroke="#4a7d36" stroke-dasharray="0,3.51885" stroke-dashoffset="3.199" stroke-opacity=".8" stroke-width=".3199" ry="8.8672" transform="matrix(-.686 .7275 .0002 1 0 0)"/><rect width="4.4286" height="218.5615" x="-997.2088" y="581.5749" fill="url(#aa)" stroke="#4a7d36" stroke-dasharray="0,3.1414" stroke-dashoffset="2.8558" stroke-opacity=".8" stroke-width=".2856" ry="4.9428" transform="matrix(-.8609 .5089 .0004 1 0 0)"/><ellipse cx="504.7637" cy="145.094" fill="url(#ab)" stroke="#4a7d36" stroke-dasharray="0,2.91499" stroke-dashoffset="2.65" stroke-opacity=".8" stroke-width=".265" rx="86.5115" ry="85.1491"/><ellipse cx="656.6697" cy="140.3257" fill="url(#ac)" stroke="#4a7d36" stroke-dasharray="0,2.91499" stroke-dashoffset="2.65" stroke-opacity=".8" stroke-width=".265" rx="86.5115" ry="85.1491"/><ellipse cx="813.3441" cy="140.3257" fill="url(#ad)" stroke="#4a7d36" stroke-dasharray="0,2.91499" stroke-dashoffset="2.65" stroke-opacity=".8" stroke-width=".265" rx="86.5115" ry="85.1491"/><ellipse cx="562.6652" cy="69.4817" fill="#cb8919" fill-opacity=".2" stroke="#4a7d36" stroke-dasharray="0,2.91499" stroke-dashoffset="2.65" stroke-opacity=".8" stroke-width=".265" rx="86.5115" ry="85.1491"/><ellipse cx="656.6697" cy="62.6697" fill="#19a9cb" fill-opacity=".2" stroke="#4a7d36" stroke-dasharray="0,2.91499" stroke-dashoffset="2.65" stroke-opacity=".8" stroke-width=".265" rx="86.5115" ry="85.1491"/><ellipse cx="767.023" cy="74.9312" fill="#c4cb19" fill-opacity=".2" stroke="#4a7d36" stroke-dasharray="0,2.91499" stroke-dashoffset="2.65" stroke-opacity=".8" stroke-width=".265" rx="86.5115" ry="85.1491"/></g><g fill-rule="evenodd"><path fill="url(#ae)" stroke="#27ecee" stroke-dasharray="0,2.91499" stroke-dashoffset="2.65" stroke-opacity=".7711" stroke-width=".265" d="M941.45 402.3907h51.7714c-27.3803 174.8032-3.516 330.9794 0 494.3577H941.45c2.7014-163.9915 29.5102-322.2731 0-494.3577z"/><path fill="url(#af)" stroke="#e1ee27" stroke-dasharray="0,11.0173" stroke-dashoffset="10.0157" stroke-opacity=".7711" stroke-width="1.0016" d="m4757.8357 2749.6582-251.277 93.5074-65.4236 260.0067-166.5796-210.0832-267.4981 18.125 148.3251-223.3459-99.8994-248.8049 258.2496 72.0478 205.7569-171.8948 11.282 267.8739z" transform="matrix(.2646 0 0 .2646 -172.5289 -359.6697)"/><path fill="url(#ag)" stroke="#27ecee" stroke-dasharray="0,11.0173" stroke-dashoffset="10.0157" stroke-opacity=".7711" stroke-width="1.0016" d="m4757.8357 2749.6582-251.277 93.5074-65.4236 260.0067-166.5796-210.0832-267.4981 18.125 148.3251-223.3459-99.8994-248.8049 258.2496 72.0478 205.7569-171.8948 11.282 267.8739z" transform="rotate(102.7509 1210.8581 463.9625) scale(.2646)"/><path fill="url(#ah)" stroke="#6527ee" stroke-dasharray="0,11.0173" stroke-dashoffset="10.0157" stroke-opacity=".7711" stroke-width="1.0016" d="m4757.8357 2749.6582-251.277 93.5074-65.4236 260.0067-166.5796-210.0832-267.4981 18.125 148.3251-223.3459-99.8994-248.8049 258.2496 72.0478 205.7569-171.8948 11.282 267.8739z" style="mix-blend-mode:saturation" transform="matrix(.2 -.1732 .1732 .2 -388.9892 567.842)"/><path fill="url(#ai)" d="M328.3349 372.2718s16.1828 2.4322-55.6147-1.7032c-112.0134-6.4517-166.1851-71.597-166.4534-160.291-.2683-88.6938 82.0612-151.3553 173.6551-155.7807 0 0-130.2236 174.7164-25.4964 249.9962" color="#000" style="mix-blend-mode:lighten;-inkscape-stroke:none"/><path fill="#171900" fill-opacity=".6185" stroke="#27ecee" stroke-dasharray="0,11.0173" stroke-dashoffset="10.0157" stroke-opacity=".7711" stroke-width="1.0016" d="M194.4805 176.9398a19.7546 19.2437 0 0 1-14.2609 18.4846 19.7546 19.2437 0 0 1-22.1927-8.2035 19.7546 19.2437 0 0 1 1.9173-23.0474 19.7546 19.2437 0 0 1 23.2592-4.6153l-8.4775 17.3816z"/><path fill="#171900" fill-opacity=".6064" stroke="#27ecee" stroke-dasharray="0,2.91499" stroke-dashoffset="2.65" stroke-opacity=".7711" stroke-width=".265" d="m171.6683 239.764 42.4107-3.0654c3.1164-.2252 2.9186-.1094 3.0041 2.7139l.377 12.4444c.0857 2.8232-5.0767 3.5695-12.807 5.4386l-27.3294 1.3624c-3.1216.1556-8.5078-5.77-10.1677-8.1634l-6.0325-8.6978c-1.66-2.3934 7.4283-1.8074 10.5448-2.0327z"/><path fill="url(#aj)" stroke="#27ecee" stroke-dasharray="0,2.91499" stroke-dashoffset="2.65" stroke-opacity=".7711" stroke-width=".265" d="M573.6695 486.4088h51.7714c-27.3803 151.0875-3.516 286.075 0 427.2877h-51.7714c2.7014-141.7426 29.5103-278.55 0-427.2877z"/><path fill="url(#ak)" stroke="#e1ee27" stroke-dasharray="0,11.0173" stroke-dashoffset="10.0157" stroke-opacity=".7711" stroke-width="1.0016" d="m4757.8357 2749.6582-251.277 93.5074-65.4236 260.0067-166.5796-210.0832-267.4981 18.125 148.3251-223.3459-99.8994-248.8049 258.2496 72.0478 205.7569-171.8948 11.282 267.8739z" transform="matrix(.2646 0 0 .2646 -551.9402 -229.4059)"/><path fill="url(#al)" stroke="#27ecee" stroke-dasharray="0,11.0173" stroke-dashoffset="10.0157" stroke-opacity=".7711" stroke-width="1.0016" d="m4757.8357 2749.6582-251.277 93.5074-65.4236 260.0067-166.5796-210.0832-267.4981 18.125 148.3251-223.3459-99.8994-248.8049 258.2496 72.0478 205.7569-171.8948 11.282 267.8739z" transform="rotate(102.7509 969.1036 377.5267) scale(.2646)"/><path fill="url(#am)" stroke="#6527ee" stroke-dasharray="0,11.0173" stroke-dashoffset="10.0157" stroke-opacity=".7711" stroke-width="1.0016" d="m4757.8357 2749.6582-251.277 93.5074-65.4236 260.0067-166.5796-210.0832-267.4981 18.125 148.3251-223.3459-99.8994-248.8049 258.2496 72.0478 205.7569-171.8948 11.282 267.8739z" style="mix-blend-mode:saturation" transform="matrix(.2 -.1732 .1732 .2 -768.4005 698.106)"/><path fill="url(#an)" stroke="#27ecee" stroke-dasharray="0,2.91499" stroke-dashoffset="2.65" stroke-opacity=".7711" stroke-width=".265" d="M793.5656 604.564h51.7714c-27.3803 110.7582-3.516 209.714 0 313.2333h-51.7714c2.7015-103.9078 29.5103-204.1977 0-313.2334z"/><path fill="url(#ao)" stroke="#e1ee27" stroke-dasharray="0,11.0173" stroke-dashoffset="10.0157" stroke-opacity=".7711" stroke-width="1.0016" d="m4757.8357 2749.6582-251.277 93.5074-65.4236 260.0067-166.5796-210.0832-267.4981 18.125 148.3251-223.3459-99.8994-248.8049 258.2496 72.0478 205.7569-171.8948 11.282 267.8739z" transform="matrix(.2646 0 0 .2646 -337.4105 -160.8992)"/><path fill="url(#ap)" stroke="#27ecee" stroke-dasharray="0,11.0173" stroke-dashoffset="10.0157" stroke-opacity=".7711" stroke-width="1.0016" d="m4757.8357 2749.6582-251.277 93.5074-65.4236 260.0067-166.5796-210.0832-267.4981 18.125 148.3251-223.3459-99.8994-248.8049 258.2496 72.0478 205.7569-171.8948 11.282 267.8739z" transform="rotate(102.7509 1049.0062 497.4843) scale(.2646)"/><path fill="url(#aq)" stroke="#6527ee" stroke-dasharray="0,11.0173" stroke-dashoffset="10.0157" stroke-opacity=".7711" stroke-width="1.0016" d="m4757.8357 2749.6582-251.277 93.5074-65.4236 260.0067-166.5796-210.0832-267.4981 18.125 148.3251-223.3459-99.8994-248.8049 258.2496 72.0478 205.7569-171.8948 11.282 267.8739z" style="mix-blend-mode:saturation" transform="matrix(.2 -.1732 .1732 .2 -528.7123 762.996)"/><rect width="193.4587" height="46.3211" x="137.6009" y="746.5872" fill="#26a80c" fill-opacity=".4177" stroke="#4a7d36" stroke-dasharray="0,2.91499" stroke-dashoffset="2.65" stroke-opacity=".8" stroke-width=".265" ry="5.098"/><rect width="193.4587" height="46.3211" x="-2.7248" y="782.0092" fill="#26a80c" fill-opacity=".4177" stroke="#4a7d36" stroke-dasharray="0,2.91499" stroke-dashoffset="2.65" stroke-opacity=".8" stroke-width=".265" ry="5.098"/><rect width="193.4587" height="46.3211" x="162.1239" y="786.0963" fill="#26a80c" fill-opacity=".4177" stroke="#4a7d36" stroke-dasharray="0,2.91499" stroke-dashoffset="2.65" stroke-opacity=".8" stroke-width=".265" ry="5.098"/><rect width="193.4587" height="46.3211" x="-14.9862" y="821.5184" fill="#26a80c" fill-opacity=".4177" stroke="#4a7d36" stroke-dasharray="0,2.91499" stroke-dashoffset="2.65" stroke-opacity=".8" stroke-width=".265" ry="5.098"/><rect width="193.4587" height="46.3211" x="147.1376" y="811.9816" fill="#26a80c" fill-opacity=".4177" stroke="#4a7d36" stroke-dasharray="0,2.91499" stroke-dashoffset="2.65" stroke-opacity=".8" stroke-width=".265" ry="5.098"/><rect width="193.4587" height="46.3211" x="213.8945" y="765.6605" fill="#26a80c" fill-opacity=".4177" stroke="#4a7d36" stroke-dasharray="0,2.91499" stroke-dashoffset="2.65" stroke-opacity=".8" stroke-width=".265" ry="5.098"/><rect width="193.4587" height="46.3211" x="298.3624" y="737.0505" fill="#26a80c" fill-opacity=".4177" stroke="#4a7d36" stroke-dasharray="0,2.91499" stroke-dashoffset="2.65" stroke-opacity=".8" stroke-width=".265" ry="5.098"/><rect width="193.4587" height="46.3211" x="343.3211" y="780.6468" fill="#26a80c" fill-opacity=".4177" stroke="#4a7d36" stroke-dasharray="0,2.91499" stroke-dashoffset="2.65" stroke-opacity=".8" stroke-width=".265" ry="5.098"/><rect width="193.4587" height="46.3211" x="346.0459" y="810.6193" fill="#26a80c" fill-opacity=".4177" stroke="#4a7d36" stroke-dasharray="0,2.91499" stroke-dashoffset="2.65" stroke-opacity=".8" stroke-width=".265" ry="5.098"/><rect width="193.4587" height="46.3211" x="442.7752" y="743.8624" fill="#26a80c" fill-opacity=".4177" stroke="#4a7d36" stroke-dasharray="0,2.91499" stroke-dashoffset="2.65" stroke-opacity=".8" stroke-width=".265" ry="5.098"/><rect width="193.4587" height="46.3211" x="569.477" y="739.7752" fill="#26a80c" fill-opacity=".4177" stroke="#4a7d36" stroke-dasharray="0,2.91499" stroke-dashoffset="2.65" stroke-opacity=".8" stroke-width=".265" ry="5.098"/><rect width="193.4587" height="46.3211" x="513.6193" y="792.9083" fill="#26a80c" fill-opacity=".4177" stroke="#4a7d36" stroke-dasharray="0,2.91499" stroke-dashoffset="2.65" stroke-opacity=".8" stroke-width=".265" ry="5.098"/><rect width="193.4587" height="46.3211" x="429.1514" y="855.578" fill="#26a80c" fill-opacity=".4177" stroke="#4a7d36" stroke-dasharray="0,2.91499" stroke-dashoffset="2.65" stroke-opacity=".8" stroke-width=".265" ry="5.098"/><rect width="193.4587" height="46.3211" x="276.5642" y="844.6789" fill="#26a80c" fill-opacity=".4177" stroke="#4a7d36" stroke-dasharray="0,2.91499" stroke-dashoffset="2.65" stroke-opacity=".8" stroke-width=".265" ry="5.098"/><rect width="193.4587" height="46.3211" x="134.8761" y="840.5917" fill="#26a80c" fill-opacity=".4177" stroke="#4a7d36" stroke-dasharray="0,2.91499" stroke-dashoffset="2.65" stroke-opacity=".8" stroke-width=".265" ry="5.098"/><rect width="193.4587" height="46.3211" x="-8.1743" y="851.4908" fill="#26a80c" fill-opacity=".4177" stroke="#4a7d36" stroke-dasharray="0,2.91499" stroke-dashoffset="2.65" stroke-opacity=".8" stroke-width=".265" ry="5.098"/><rect width="193.4587" height="46.3211" x="549.0413" y="826.9679" fill="#26a80c" fill-opacity=".4177" stroke="#4a7d36" stroke-dasharray="0,2.91499" stroke-dashoffset="2.65" stroke-opacity=".8" stroke-width=".265" ry="5.098"/><rect width="193.4587" height="46.3211" x="589.9128" y="786.0963" fill="#26a80c" fill-opacity=".4177" stroke="#4a7d36" stroke-dasharray="0,2.91499" stroke-dashoffset="2.65" stroke-opacity=".8" stroke-width=".265" ry="5.098"/><rect width="193.4587" height="46.3211" x="-16.3486" y="702.9908" fill="#26a80c" fill-opacity=".4177" stroke="#4a7d36" stroke-dasharray="0,2.91499" stroke-dashoffset="2.65" stroke-opacity=".8" stroke-width=".265" ry="5.098"/><rect width="193.4587" height="46.3211" x="140.3257" y="724.789" fill="#26a80c" fill-opacity=".4177" stroke="#4a7d36" stroke-dasharray="0,2.91499" stroke-dashoffset="2.65" stroke-opacity=".8" stroke-width=".265" ry="5.098"/><rect width="193.4587" height="46.3211" x="273.8394" y="715.2523" fill="#26a80c" fill-opacity=".4177" stroke="#4a7d36" stroke-dasharray="0,2.91499" stroke-dashoffset="2.65" stroke-opacity=".8" stroke-width=".265" ry="5.098"/><rect width="193.4587" height="46.3211" x="416.8899" y="715.2523" fill="#26a80c" fill-opacity=".4177" stroke="#4a7d36" stroke-dasharray="0,2.91499" stroke-dashoffset="2.65" stroke-opacity=".8" stroke-width=".265" ry="5.098"/><rect width="193.4587" height="46.3211" x="594" y="719.3395" fill="#26a80c" fill-opacity=".4177" stroke="#4a7d36" stroke-dasharray="0,2.91499" stroke-dashoffset="2.65" stroke-opacity=".8" stroke-width=".265" ry="5.098"/><rect width="193.4587" height="46.3211" x="232.9679" y="720.7018" fill="#26a80c" fill-opacity=".4177" stroke="#4a7d36" stroke-dasharray="0,2.91499" stroke-dashoffset="2.65" stroke-opacity=".8" stroke-width=".265" ry="5.098"/><rect width="193.4587" height="46.3211" x="-9.8882" y="746.5872" fill="#26a80c" fill-opacity=".4177" stroke="#4a7d36" stroke-dasharray="0,2.91499" stroke-dashoffset="2.65" stroke-opacity=".8" stroke-width=".265" ry="5.098"/><rect width="193.4587" height="46.3211" x="713.8899" y="756.1238" fill="#26a80c" fill-opacity=".4177" stroke="#4a7d36" stroke-dasharray="0,2.91499" stroke-dashoffset="2.65" stroke-opacity=".8" stroke-width=".265" ry="5.098"/><rect width="193.4587" height="46.3211" x="660.7569" y="848.766" fill="#26a80c" fill-opacity=".4177" stroke="#4a7d36" stroke-dasharray="0,2.91499" stroke-dashoffset="2.65" stroke-opacity=".8" stroke-width=".265" ry="5.098"/><rect width="193.4587" height="46.3211" x="771.1101" y="795.633" fill="#26a80c" fill-opacity=".4177" stroke="#4a7d36" stroke-dasharray="0,2.91499" stroke-dashoffset="2.65" stroke-opacity=".8" stroke-width=".265" ry="5.098"/><rect width="193.4587" height="46.3211" x="753.3991" y="742.5" fill="#26a80c" fill-opacity=".4177" stroke="#4a7d36" stroke-dasharray="0,2.91499" stroke-dashoffset="2.65" stroke-opacity=".8" stroke-width=".265" ry="5.098"/><rect width="193.4587" height="46.3211" x="832.4174" y="831.0551" fill="#26a80c" fill-opacity=".4177" stroke="#4a7d36" stroke-dasharray="0,2.91499" stroke-dashoffset="2.65" stroke-opacity=".8" stroke-width=".265" ry="5.098"/><rect width="193.4587" height="46.3211" x="769.7477" y="724.789" fill="#26a80c" fill-opacity=".4177" stroke="#4a7d36" stroke-dasharray="0,2.91499" stroke-dashoffset="2.65" stroke-opacity=".8" stroke-width=".265" ry="5.098"/><rect width="193.4587" height="46.3211" x="895.0872" y="769.7477" fill="#26a80c" fill-opacity=".4177" stroke="#4a7d36" stroke-dasharray="0,2.91499" stroke-dashoffset="2.65" stroke-opacity=".8" stroke-width=".265" ry="5.098"/><rect width="193.4587" height="46.3211" x="975.4679" y="734.3257" fill="#26a80c" fill-opacity=".4177" stroke="#4a7d36" stroke-dasharray="0,2.91499" stroke-dashoffset="2.65" stroke-opacity=".8" stroke-width=".265" ry="5.098"/><rect width="193.4587" height="46.3211" x="963.2064" y="817.4312" fill="#26a80c" fill-opacity=".4177" stroke="#4a7d36" stroke-dasharray="0,2.91499" stroke-dashoffset="2.65" stroke-opacity=".8" stroke-width=".265" ry="5.098"/><rect width="193.4587" height="46.3211" x="1084.4587" y="787.4587" fill="#26a80c" fill-opacity=".4177" stroke="#4a7d36" stroke-dasharray="0,2.91499" stroke-dashoffset="2.65" stroke-opacity=".8" stroke-width=".265" ry="5.098"/><rect width="193.4587" height="46.3211" x="851.4908" y="855.578" fill="#26a80c" fill-opacity=".4177" stroke="#4a7d36" stroke-dasharray="0,2.91499" stroke-dashoffset="2.65" stroke-opacity=".8" stroke-width=".265" ry="5.098"/><rect width="193.4587" height="46.3211" x="991.8165" y="856.9404" fill="#26a80c" fill-opacity=".4177" stroke="#4a7d36" stroke-dasharray="0,2.91499" stroke-dashoffset="2.65" stroke-opacity=".8" stroke-width=".265" ry="5.098"/><rect width="193.4587" height="46.3211" x="1103.5321" y="829.6927" fill="#26a80c" fill-opacity=".4177" stroke="#4a7d36" stroke-dasharray="0,2.91499" stroke-dashoffset="2.65" stroke-opacity=".8" stroke-width=".265" ry="5.098"/><rect width="193.4587" height="46.3211" x="1166.2018" y="846.0413" fill="#26a80c" fill-opacity=".4177" stroke="#4a7d36" stroke-dasharray="0,2.91499" stroke-dashoffset="2.65" stroke-opacity=".8" stroke-width=".265" ry="5.098"/><rect width="193.4587" height="46.3211" x="1069.4725" y="745.2248" fill="#26a80c" fill-opacity=".4177" stroke="#4a7d36" stroke-dasharray="0,2.91499" stroke-dashoffset="2.65" stroke-opacity=".8" stroke-width=".265" ry="5.098"/><rect width="193.4587" height="46.3211" x="1213.8854" y="758.8486" fill="#26a80c" fill-opacity=".4177" stroke="#4a7d36" stroke-dasharray="0,2.91499" stroke-dashoffset="2.65" stroke-opacity=".8" stroke-width=".265" ry="5.098"/><rect width="193.4587" height="46.3211" x="1237.0459" y="807.8945" fill="#26a80c" fill-opacity=".4177" stroke="#4a7d36" stroke-dasharray="0,2.91499" stroke-dashoffset="2.65" stroke-opacity=".8" stroke-width=".265" ry="5.098"/><rect width="193.4587" height="46.3211" x="1246.5825" y="840.5917" fill="#26a80c" fill-opacity=".4177" stroke="#4a7d36" stroke-dasharray="0,2.91499" stroke-dashoffset="2.65" stroke-opacity=".8" stroke-width=".265" ry="5.098"/><rect width="193.4587" height="46.3211" x="1217.9725" y="728.8762" fill="#26a80c" fill-opacity=".4177" stroke="#4a7d36" stroke-dasharray="0,2.91499" stroke-dashoffset="2.65" stroke-opacity=".8" stroke-width=".265" ry="5.098"/><path fill="url(#ar)" stroke="#4a7d36" stroke-dasharray="0,11.0173" stroke-dashoffset="10.0157" stroke-opacity=".8" stroke-width="1.0016" d="m4417.9905 2950.476-1.0035-349.5644-1.0035-349.5644 303.2334 173.9132 303.2334 173.9132-302.2299 175.6512z" transform="rotate(17.1266 1464.1363 475.2801) scale(.2646)"/><path fill="url(#as)" stroke="#4a7d36" stroke-dasharray="0,11.0173" stroke-dashoffset="10.0157" stroke-opacity=".8" stroke-width="1.0016" d="m4417.9905 2950.476-1.0035-349.5644-1.0035-349.5644 303.2334 173.9132 303.2334 173.9132-302.2299 175.6512z" transform="rotate(17.1266 1364.6832 555.2394) scale(.2646)"/><path fill="url(#at)" stroke="#4a7d36" stroke-dasharray="0,11.0173" stroke-dashoffset="10.0157" stroke-opacity=".8" stroke-width="1.0016" d="m4417.9905 2950.476-1.0035-349.5644-1.0035-349.5644 303.2334 173.9132 303.2334 173.9132-302.2299 175.6512z" transform="rotate(17.1266 1603.9452 595.8208) scale(.2646)"/><path fill="url(#au)" stroke="#4a7d36" stroke-dasharray="0,11.0173" stroke-dashoffset="10.0157" stroke-opacity=".8" stroke-width="1.0016" d="m4417.9905 2950.476-1.0035-349.5644-1.0035-349.5644 303.2334 173.9132 303.2334 173.9132-302.2299 175.6512z" transform="rotate(17.1266 1790.6631 739.613) scale(.2646)"/><path fill="url(#av)" stroke="#4a7d36" stroke-dasharray="0,11.0173" stroke-dashoffset="10.0157" stroke-opacity=".8" stroke-width="1.0016" d="m4417.9905 2950.476-1.0035-349.5644-1.0035-349.5644 303.2334 173.9132 303.2334 173.9132-302.2299 175.6512z" transform="rotate(17.1266 1840.959 866.5225) scale(.2646)"/><path fill="url(#aw)" stroke="#4a7d36" stroke-dasharray="0,11.0173" stroke-dashoffset="10.0157" stroke-opacity=".8" stroke-width="1.0016" d="m4417.9905 2950.476-1.0035-349.5644-1.0035-349.5644 303.2334 173.9132 303.2334 173.9132-302.2299 175.6512z" transform="rotate(17.1266 1577.3024 892.2936) scale(.2646)"/><path fill="url(#ax)" stroke="#4a7d36" stroke-dasharray="0,11.0173" stroke-dashoffset="10.0157" stroke-opacity=".8" stroke-width="1.0016" d="m4417.9905 2950.476-1.0035-349.5644-1.0035-349.5644 303.2334 173.9132 303.2334 173.9132-302.2299 175.6512z" transform="rotate(17.1266 1507.2549 715.5454) scale(.2646)"/><path fill="url(#ay)" stroke="#4a7d36" stroke-dasharray="0,11.0173" stroke-dashoffset="10.0157" stroke-opacity=".8" stroke-width="1.0016" d="m4417.9905 2950.476-1.0035-349.5644-1.0035-349.5644 303.2334 173.9132 303.2334 173.9132-302.2299 175.6512z" transform="rotate(17.1266 1646.2143 838.2732) scale(.2646)"/><path fill="url(#az)" stroke="#4a7d36" stroke-dasharray="0,11.0173" stroke-dashoffset="10.0157" stroke-opacity=".8" stroke-width="1.0016" d="m4417.9905 2950.476-1.0035-349.5644-1.0035-349.5644 303.2334 173.9132 303.2334 173.9132-302.2299 175.6512z" transform="rotate(17.1266 1709.7747 1032.149) scale(.2646)"/><path fill="url(#aA)" stroke="#4a7d36" stroke-dasharray="0,11.0173" stroke-dashoffset="10.0157" stroke-opacity=".8" stroke-width="1.0016" d="m4417.9905 2950.476-1.0035-349.5644-1.0035-349.5644 303.2334 173.9132 303.2334 173.9132-302.2299 175.6512z" transform="rotate(17.1266 1596.9216 984.2211) scale(.2646)"/><path fill="url(#aB)" stroke="#4a7d36" stroke-dasharray="0,11.0173" stroke-dashoffset="10.0157" stroke-opacity=".8" stroke-width="1.0016" d="m4417.9905 2950.476-1.0035-349.5644-1.0035-349.5644 303.2334 173.9132 303.2334 173.9132-302.2299 175.6512z" transform="rotate(17.1266 1875.6228 769.8161) scale(.2646)"/><path fill="url(#aC)" stroke="#4a7d36" stroke-dasharray="0,11.0173" stroke-dashoffset="10.0157" stroke-opacity=".8" stroke-width="1.0016" d="m4417.9905 2950.476-1.0035-349.5644-1.0035-349.5644 303.2334 173.9132 303.2334 173.9132-302.2299 175.6512z" transform="rotate(17.1266 1333.896 1075.0486) scale(.2646)"/><path fill="url(#aD)" stroke="#4a7d36" stroke-dasharray="0,11.0173" stroke-dashoffset="10.0157" stroke-opacity=".8" stroke-width="1.0016" d="m4417.9905 2950.476-1.0035-349.5644-1.0035-349.5644 303.2334 173.9132 303.2334 173.9132-302.2299 175.6512z" transform="rotate(17.1266 1646.2143 838.2732) scale(.2646)"/><path fill="url(#aE)" stroke="#4a7d36" stroke-dasharray="0,11.0173" stroke-dashoffset="10.0157" stroke-width="1.0016" d="m4417.9905 2950.476 16.6805-267.5264-210.9254-165.4059 259.5873-66.8061 92.1308-251.7152 143.7532 226.238 267.8654 9.8373-170.7429 206.6288 73.4191 257.7951-249.2782-98.5344z" transform="rotate(17.1266 1918.8035 1062.9446) scale(.2646)"/><path fill="url(#aF)" stroke="#4a7d36" stroke-dasharray="0,11.0173" stroke-dashoffset="10.0157" stroke-opacity=".8" stroke-width="1.0016" d="m4417.9905 2950.476-1.0035-349.5644-1.0035-349.5644 303.2334 173.9132 303.2334 173.9132-302.2299 175.6512z" transform="rotate(17.1266 1566.7867 435.662) scale(.2646)"/><path fill="url(#aG)" stroke="#4a7d36" stroke-dasharray="0,11.0173" stroke-dashoffset="10.0157" stroke-opacity=".8" stroke-width="1.0016" d="m4417.9905 2950.476-1.0035-349.5644-1.0035-349.5644 303.2334 173.9132 303.2334 173.9132-302.2299 175.6512z" transform="rotate(17.1266 1348.2895 314.4343) scale(.2646)"/><path fill="url(#aH)" stroke="#4a7d36" stroke-dasharray="0,11.0173" stroke-dashoffset="10.0157" stroke-opacity=".8" stroke-width="1.0016" d="m4417.9905 2950.476-1.0035-349.5644-1.0035-349.5644 303.2334 173.9132 303.2334 173.9132-302.2299 175.6512z" transform="rotate(17.1266 1491.9484 1000.0571) scale(.2646)"/><path fill="url(#aI)" stroke="#4a7d36" stroke-dasharray="0,11.0173" stroke-dashoffset="10.0157" stroke-opacity=".8" stroke-width="1.0016" d="m4417.9905 2950.476-1.0035-349.5644-1.0035-349.5644 303.2334 173.9132 303.2334 173.9132-302.2299 175.6512z" transform="rotate(17.1266 1390.7141 1083.4195) scale(.2646)"/></g></svg>