<svg xmlns="http://www.w3.org/2000/svg" xmlns:xlink="http://www.w3.org/1999/xlink" width="1400" height="900" viewBox="0 0 370.4167 238.125"><defs><radialGradient xlink:href="#a" id="g" cx="183.5814" cy="118.1869" r="188.3498" fx="183.5814" fy="118.1869" gradientTransform="matrix(.0225 1.7987 -1.1643 .0145 317.0624 -213.7457)" gradientUnits="userSpaceOnUse"/><radialGradient xlink:href="#b" id="n" cx="557.9997" cy="360.9733" r="256.9555" fx="557.9997" fy="360.9733" gradientTransform="matrix(1 0 0 .9874 0 4.5356)" gradientUnits="userSpaceOnUse"/><radialGradient xlink:href="#c" id="j" cx="557.9997" cy="360.9733" r="256.9555" fx="557.9997" fy="360.9733" gradientTransform="matrix(1 0 0 .9874 0 4.5356)" gradientUnits="userSpaceOnUse"/><radialGradient xlink:href="#d" id="l" cx="557.9998" cy="360.9733" r="256.9555" fx="557.9998" fy="360.9733" gradientTransform="matrix(1 0 0 .9874 0 4.5356)" gradientUnits="userSpaceOnUse"/><radialGradient xlink:href="#e" id="h" cx="557.9998" cy="360.9733" r="256.9555" fx="557.9998" fy="360.9733" gradientTransform="matrix(1 0 0 .9874 0 4.5356)" gradientUnits="userSpaceOnUse"/><radialGradient xlink:href="#c" id="k" cx="552.68" cy="360.8734" r="431.3172" fx="552.68" fy="360.8734" gradientTransform="matrix(1 0 0 .9985 0 .5344)" gradientUnits="userSpaceOnUse"/><radialGradient xlink:href="#d" id="m" cx="548.6016" cy="364.9548" r="429.1984" fx="548.6016" fy="364.9548" gradientTransform="matrix(1 0 0 1.008 0 -2.8996)" gradientUnits="userSpaceOnUse"/><radialGradient xlink:href="#e" id="i" cx="548.5951" cy="364.9622" r="429.1633" fx="548.5951" fy="364.9622" gradientTransform="matrix(1 0 0 1.008 0 -2.9058)" gradientUnits="userSpaceOnUse"/><linearGradient id="f"><stop offset="0" stop-color="#1bc32f" stop-opacity=".3882"/></linearGradient><linearGradient id="e"><stop offset="0" stop-color="#b4991f" stop-opacity=".8353"/><stop offset="1" stop-color="#fcaf11" stop-opacity="0"/></linearGradient><linearGradient id="d"><stop offset="0" stop-color="#16ffc9" stop-opacity=".8554"/><stop offset="1" stop-color="#037bd2" stop-opacity="0"/></linearGradient><linearGradient id="c"><stop offset="0" stop-color="#ef8ac7" stop-opacity=".8956"/><stop offset="1" stop-color="#f705f9" stop-opacity="0"/></linearGradient><linearGradient id="b"><stop offset="0" stop-color="#04ddcb"/><stop offset="1" stop-color="#44e950" stop-opacity="0"/></linearGradient><linearGradient id="a"><stop offset="0"/><stop offset="1" stop-opacity="0"/></linearGradient><linearGradient xlink:href="#f" id="o" x1="133.7358" x2="982.844" y1="362.2113" y2="362.2113" gradientUnits="userSpaceOnUse"/></defs><rect width="376.6995" height="243.1858" x="-4.7683" y="-3.406" fill="url(#g)" stroke="#e1ee27" stroke-dasharray="0,2.91499" stroke-dashoffset="2.65" stroke-opacity=".7711" stroke-width=".265" ry="7.8111"/><path fill="url(#h)" fill-rule="evenodd" stroke="url(#i)" stroke-width="1.0661" d="M334.6962 502.0444 210.8506 636.5289l90.1937-309.7835L119.728 350.16l268.2173-179.3326-153.947-98.6111 320.7392 35.03-54.5443-174.4956L723.377 165.7525 793.7573-2.9793 814.9552 318.97l162.3732-84.0164L786.622 495.2068l178.3898 40.0112-313.3772 76.7817 110.9359 145.3171L473.155 614.7001l-8.4262 182.6275Z" style="mix-blend-mode:lighten" transform="matrix(.1916 -.1809 .1743 .1569 -60.8227 126.4898)"/><path fill="url(#j)" fill-rule="evenodd" stroke="url(#k)" stroke-width="1.2354" d="m334.6962 502.0444 106.6913 289.5075-140.3432-464.8065-104.3617 290.3554 191.2628-446.2733-266.5826 155.3428 433.3748-218.9239L250.671 54.89l472.7058 110.8625L524.1025-69.8051 814.9552 318.97l-1.2396-308.5386-27.0937 484.7755 197.3753-237.1511-332.3627 353.944 303.636-54.7979-482.1154 57.4983 267.8221 153.1958Z" style="mix-blend-mode:screen" transform="matrix(.1052 .1908 -.1958 .081 199.8024 -85.571)"/><path fill="url(#l)" fill-rule="evenodd" stroke="url(#m)" stroke-width="1.1691" d="M334.6962 502.0444 210.8506 636.5289l90.1937-309.7835L119.728 350.16l268.2173-179.3326-153.947-98.6111 320.7392 35.03-54.5443-174.4956L723.377 165.7525 793.7573-2.9793 814.9552 318.97l162.3732-84.0164L786.622 495.2068l178.3898 40.0112-313.3772 76.7817 110.9359 145.3171L473.155 614.7001l-8.4262 182.6275Z" transform="matrix(.1765 -.1632 .1606 .1416 102.2321 127.8095)"/><path fill="url(#n)" fill-rule="evenodd" stroke="url(#o)" stroke-width="1.2465" d="m707.579-23.0784-151.327-39.256 367.9794 226.4968-90.6898-127.3429 136.2992 410.0392 12.382-155.8446-159.157 401.7196L932.726 581.3088l-380.1417 205.431 155.6271-14.8682-423.2539-86.981 128.7744 88.6454-268.321-338.6937 41.6668 150.6809L199.24 153.5953l-64.9373 142.2112L421.2575-27.2517 280.101 39.9475Z" style="mix-blend-mode:normal" transform="matrix(.1705 -.1486 .1552 .129 33.0252 154.5387)"/></svg>