<svg xmlns="http://www.w3.org/2000/svg" xmlns:xlink="http://www.w3.org/1999/xlink" width="1400" height="900" viewBox="0 0 370.4167 238.125"><defs><linearGradient id="c"><stop offset="0" stop-color="#0f230e"/><stop offset="1" stop-color="#0d1d0c" stop-opacity=".3529"/></linearGradient><linearGradient id="b"><stop offset="0" stop-color="#0f230e"/><stop offset="1" stop-color="#0f230e" stop-opacity=".2048"/></linearGradient><linearGradient id="a"><stop offset="0" stop-color="#0f230e" stop-opacity=".5582"/><stop offset="1" stop-color="#70d641" stop-opacity=".1406"/></linearGradient><linearGradient xlink:href="#a" id="e" x1="134.8761" x2="189.3716" y1="72.2064" y2="113.078" gradientUnits="userSpaceOnUse" spreadMethod="reflect"/><linearGradient xlink:href="#b" id="f" x1="424.383" x2="58.5826" y1="149.1812" y2="103.5413" gradientUnits="userSpaceOnUse"/><linearGradient xlink:href="#c" id="g" x1="-72.8876" x2="49.0458" y1="-34.0596" y2="111.0344" gradientTransform="matrix(1.0146 0 0 1.0113 .0496 -2.7278)" gradientUnits="userSpaceOnUse"/><pattern id="d" width="372" height="400" patternTransform="scale(.2)" patternUnits="userSpaceOnUse"><path fill="#344a33" d="M0 0h391v410H0V0z"/><g fill="#463a28"><path d="M372.785 171.16c-19.515 5.963-40.3845 5.795-60.385 2.6355-11.656 1.636-20.305 14.7345-33.14 9.781-14.1135-1.3415-28.2045.8875-42.272 1.7685-9.3-8.0815-26.438 10.669-10.9015 13.837 10.3035.889 21.1945-2.5065 31.0085 2.304 7.2085 4.466 11.094 9.8655 19.9545 10.194 6.0635 7.491-10.927 5.356-15.0175 4.576-10.6435.966 3.283 11.9495 8.7 11.173 14.3425 1.8345 26.9575-7.4275 40.7555-9.0635 9.0925 3.539-7.0615 11.8535-12.15 11.7645-7.1635-.863-17.201 5.665-6.9295 10.1645 8.8935 3.741 22.9775-.4545 27.1395 10.7595-4.234 11.5375-22.2305 6.649-31.094 2.6355-9.002-6.839-20.4475-2.0745-27.785 4.8215-6.7315 6.4065-14.358 11.91-22.902 15.3285-8.5865 9.9535 8.017 16.1515 13.651 9.6005 2.448 10.705-15.257 5.803-16.3035 14.2965 8.658 4.9015 24.4075-.488 27.922 11.7385-.997 12.178-16.0335 16.605-25.6635 11.1425-14.2885-4.3855-29.6185-8.476-44.4805-4.3655-7.9765 1.4535-16.8335 4.1965-24.214-.666-9.768-4.783-17.9405-12.086-26.893-18.181-6.588-13.3285-20.9515-21.87-35.6125-22.9535-9.896-5.169-25.5295-11.182-34.5285-1.9685-1.6735 12.036 16.9425 11.1315 24.238 16.85 10.515 3.148 11.654 19.6975-1.6395 17.857-14.9615.396-32.177 1.025-44.312-9.298-6.0185-6.1535-7.9325-15.0195-12.765-22.0395-8.79-10.106 4.8915-18.0055 14.3565-16.2015 13.0045-.1335 12.7065-17.074 16.247-25.826-7.81-7.494-15.355 8.929-22.987 10.3815-11.1475-1.0385-13.7855-15.93-13.2575-25.129.998-11.7625-12.401-15.955-16.115-26.251-5.4555-8.71-12.3545-.8195-8.53 6.6445 5.509 12.5025-.7365 25.963 1.9415 38.8915 1.5305 10.826 18.0655 15.6515 14.1345 27.801-6.143 7.4235-12.9815 21.1315-25.1705 15.732v36.6995c12.349 2.6865 8.885 17.6785 6.659 26.469-.8765 11.401 10.406 17.132 19.646 19.978 8.702 2.973 17.094 8.124 20.873 16.8515 8.96 11.2845 24.873 9.229 37.545 11.8245 9.496 2.832 18.906 6.831 29.0555 5.731 25.4065.174 50.814-.0165 76.2215.056-12.08-7.0845-26.7495-3.2665-39.6325-7.4715 11.9335-3.51 25.72 3.9895 36.5385-4.0635 12.488-6.2195-7.659-11.552-13.671-9.02-10.877 2.025-22.3615 4.5235-33.0035-.083-10.3645-5.1715-19.808-12.917-26.747-22.192-9.011-10.7685 1.4225-24.5245 14.2255-19.741 10.9175 1.98 23.8755 1.0445 32.2305 9.5995-7.8895 1.9925-18.59-5.541-26.5895.58-9.711 7.9105.7275 22.0225 9.9865 24.706 12.215 4.5765 25.574-1.4325 37.595 4.0905 12.068 5.6785 26.625 3.857 37.2025-4.171 8-5.5255 27.403-1.3255 32.0755-3.524-8.5605 4.54-10.964 18.904 2.3165 14.0365 13.279-2.825 25.792-8.3545 39.0195-11.7465 9.66 3.0455 25.139 10.68 31.4435-1.05 2.9265-9.5905 12.772-12.0895 19.365-18.1245 8.674-9.8615-8.8315-7.4205-14.5375-7.659-9.6745-.279-19.32-1.1505-28.9425-2.151 7.534-11.908 23.273-12.6355 35.9085-11.707 13.511-6.3045 31.4145-6.537 40.2165-20.3085-.9345-11.255 1.8635-26.0095-1.39-35.09-14.7945-3.5495 2.7195-17.6515 1.39-26.2615V171.16z"/><path d="M35.676 341.035c-11.657 4.3925-25.049-.966-35.887 1.873-5.54 10.766.2645 23.9045-1.914 35.647-.7045 9.2585-2.906 25.4 11.2505 20.9065 14.879-.1765 29.861.7665 44.672-.712 6.982.5465 15.1225-9.659 3.8725-10.272-13.9295-.613-12.136-20.353 1.7105-19.4345 11.524-.6575 23.1065-2.7345 32.7205-9.4305 7.887-9.7755-10.9965-8.8775-16.513-6.4475-10.2435-.0665-17.8025 5.107-24.843 11.78-7.6255-1.197-14.921-7.473-23.9625-4.4975-10.7235.5625-1.9595-11.8155 5.1875-8.251 7.037-2.864 21.868 6.618 23.324-3.7485-3.231-5.8145-13.2605-7.195-19.618-7.413zM33.8485 132.7585c8.314 8.067 21.42.134 29.4535 2.6905-8.1355 10.4485 8.7865 14.256 16.3145 9.89 10.6155 4.491 16.568-8.853 26.47-7.6135 10.925 3.4555 22.4515-.465 33.477-.255 6.4975-1.5895 21.746 8.264 10.82 11.8575-9.078-.2185-18.8545-3.5445-27.067.4625-7.8905 8.8005 6.3425 6.427 11.4365 6.2445 8.347 4.0955 17.2645 7.805 23.503-1.651 7.836-6.2235 18.468-4.1015 27.566-6.992 13.5975.12 4.047 13.5375-4.6815 13.1945-8.9735 5.3595-19.5585 2.8855-28.885 6.2915-13.4625 7.6025.8105 18.822 9.613 20.073.595 10.6725-16.89 7.91-24.408 10.159-8.4785 2.3035-23.57-6.5115-26.544 5.334-.9495 10.9065 21.597 10.4205 10.1995 21.3005-4.291 7.985-23.217 1.179-15.5155 13.7225 5.0595 11.3235-13.5735 1.1115-20.085 3.707-6.1885 4.71-18.3605-2.314-10.852-8.9425 3.8385-.7245 14.526 1.1595 11.541-5.789-8.415-1.112-20.8645 6.2275-26.2405-3.5725 3.5-8.915-8.813-17.38-1.172-24.234 2.8495-1.753-10.0735 2.518-7.4205-5.4455 3.0115-8.3975 1.746-15.9725.613-24.1625 3.45-2.426 11.992-10.2695 2.025-8.9925-5.091 1.1195-12.3705-2.844-15.9205-2.411.1245-5.768-3.2935-15.228-10.062-8.4625-12.4835-1.858-1.696-16.557 5.8215-16.4035zM132.7065 81.505C131.063 13.188 113.853 11.6 105.0775 6.5285c-10.964 1.213-15.549 14.406-26.6445 15.7365-13.126 1.27-1.286 18.147-14.284 20.1945-19.4995 6.5635-41.8035 5.8345-59.1505 18.245C-4.1555 68.993.794 82.3355 1.9095 92.78 3.079 104.5895 20.35 99.1915 19.971 111.057c2.873 14.5885 18.6555-.123 26.2125-2.6665 11.0845-5.7805 20.6535 7.791 31.6785 4.0525 5.9435-6.264 14.778-7.511 23.062-7.818 9.2565-.125 16.293-7.125 25.722-6.427 15.794-1.2535 31.6745-.019 47.4415-1.0905 9.8875-1.581 19.802-2.9335 29.779-3.646 10.5905-1.7335 21.404-6.9505 32.196-3.4925 8.236 10.5355 19.8705.9025 24.166-7.548 10.1915-6.4085 22.774-5.5985 34.2575-7.0975 10.0075 1.071 24.8355 1.8185 27.709-10.718.5725-10.1955-12.2045-13.3535-20.354-13.2265-12.916 2.781-25.5945 8.469-39.1265 7.5035-6.7465 2.1085-23.464 11.535-23.8565-.425 4.3515-3.0225 13.9295-12.355 2.414-12.1235-12.05-.318-24.33 9.3965-35.9715 2.5305-4.366-11.7175 11.2615-16.256 20.134-16.336 12.752-1.654 25.4965.564 37.8745 3.457 8.612-.828 23.617 4.9765 28.7645-1.829-2.9325-8.9885-10.3025-12.0665-18.496-15.477-5.4935-4.776-19.9755 2.2175-19.597-9.974 7.0645-9.3085-10.5365-4.919-15.6745-2.811-7.6075 3.4775-15.918 3.8365-23.96 4.792-11.973-.66-16.9675-15.81-30.035 70.8185h-51.6045zm-6.359-53.75c10.629 5.2405 21.2865 10.447 32.238 14.9865 8.7925 2.2785 24.9475-7.3885 28.5165 3.034-6.5165 8.0685-19.028.6805-28.0945 2.6905-11.367.8005-24.5375 4.114-34.1855-3.9865-5.8715-3.298-26.18-1.0865-19.114-11.7545 6.6115-2.7585 14.887.1005 20.6395-4.97z"/><path d="M-2.215 81.505v-36.17c4.6915 2.1785 15.307 3.2545 8.0305-4.2605C-.507 28.2805 18.866 35.627 22.7995 26.599c9.8215-10.984-12.793-8.8335-10.7445-20.304C14.2235-5.634 29.8955 3.4825 38.1565.906 42.353.8165 52.309-.9885 42.6645-.516 27.7055-.453 12.745-.518-2.215 81.505z"/><path fill-rule="evenodd" stroke-linecap="round" stroke-linejoin="round" stroke-width="2" d="M473.656 509.156c-21.422-4.879-32.269 42.814-4.86 29.746 21.292-9.986 1.021 32.662 24.563 21.995 10.665 6.52 45.103-2.239 23.694 15.012-13.819 6.611-8.597 17.938-2.557 26.62-4.264 13.682-13.479 39.224 11.529 32.471H600V524.531c-16.39 16.073-44.45 9.381-63.445 12.573-12.35-4.934-5.163-20.466-5.057-24.008-20.757-1.205-38.799 10.922-57.842-3.94z" overflow="visible" style="marker:none" transform="matrix(.5 0 0 .5 72.785 82.005)"/><path d="M327.785 81.505c-1.1175-74.0725 13.599-84.38 5.8865-77.8675-6.1215 7.4675 6.5815 15.1275 2.1985 22.995 4.7945 12.202 24.3855-2.0475 26.995 6.3945-4.984 3.4945-23.381 3.5515-11.8625 12.3955 6.8975-.193 15.4865.262 21.1835-1.824 2.2025-9.537-.774-19.6475.6085-29.44 1.803-8.6805-.2335-18.134-10.952 67.3465H327.785zM221.394 386.6455c-11.879 3.4395-26.0595-.8375-36.2425 7.789-5.809 8.7585 12.199 5.77 16.68 3.223 9.4555-5.6015 20.3305-7.5465 31.1915-6.797 7.382-.4615 8.5175-3.7335.544-3.1435-4.064-.2575-8.1515-.379-12.173-1.0715zM9.457 159.41c-5.4975 8.085-15.768 14.6095-11.672 25.9085v69.1865c3.674-8.2 11.324-19.9095 21.006-11.5345 12.8415 2.957 15.4395-15.3735 11.3175-23.9305-5.584-7.765-15.6255 6.072-17.1295-5.8835-4.9165-10.0365-5.435-20.7345-.71-30.9235.725-7.1675 11.929-23.729-2.812-22.823zM-2.215 274.505v37.5c7.386-8.282 5.0645-20.0955 8.014-29.9875 1.1345-4.92-3.2655-8.8645-8.014-7.5125z"/></g><g fill="#758949"><path d="M63.239 158.3365c9.378 6.2455-12.7015 10.5785-1.9065 14.997 2.181 10.3675-16.526 9.451-10.803 21.174 2.2785 6.526-7.829 11.7625-6.199 2.4355 1.4005-6.3265-.8455-13.775-8.5095-10.879-7.7475-5.389 11.1165-7.9885 4.68-15.284-3.039-13.568 12.6545-11.82 21.0255-11.46l1.7125-.9835zM189.676 183.0395c-10.8085 6.573 8.7905 19.488-2.7895 23.0525-6.0595 7.205-15.3455 12.0455-23.3495 5.274-7.599-2.5235-11.6765 14.0375-3.9495 5.968 6.9705-3.5635 12.0125 8.5095 2.271 6.7685-12.6445 4.611 4.585 10.36 10.012 5.698 12.0165-2.4255 8.3695 10.8005 6.0745 17.0895 7.8755-.908 13.5735-12.1315 22.7195-14.195 8.3765.37-7.034-4.964-8.5505-4.992-3.475-4.714-13.384-5.433-4.9295-10.6275 6.379-8.0835 17.58-12.8745 27.4355-10.602 11.67 5.1415 11.333 20.9115 1.8255 28.082-5.785 9.498 7.148 6.3825 9.409.1145 3.565-4.775 6.926-5.7815 7.8465.9115 3.321 4.3725 10.654-3.957 6.193 2.9555 4.673 8.8995 15.691-9.3395 10.857-15.8235-10.0525-8.865 10.554-6.116 8.6075-13.3295-8.9665-7.725-21.6285-.1905-30.262 1.2835-4.706-8.6425-11.0945-15.76-21.568-14.4455-8.0835-1.292-14.7275-6.029-17.8525-13.1825zM7.785-.495c-8.2485 5.2895 9.0355 10.22 6.923 17.078 4.6585 1.553 5.2675-13.262 11.3695-5.4285.6935 8.044-15.442 19.246-1.399 24.423 12.4035 1.04 2.106-16.9215 12.833-15.9215 11.153-.608-13.1925-8.6615-2.915-15.416C44.3385 2.843 47.08 16.1995 54.882 18.6785c9.445-2.6325-9.706-18.474 4.3715-13.886C71.34 9.0015 81.3135 17.41 92.373 23.558c.826 7.7915-12.0715 11.606-12.8205 20.6085-6.9565 10.209 8.968 21.4905 16.2195 12.9645 7.325-10.034-15.7135-7.06-6.3965-16.074 6.049-8.6095 15.734-11.018 25.0365-14.3135 6.0095-7.4075 19.895-13.2545 25.7435-2.3545-.8845 11.8515 13.567 8.11 12.0265-1.971.541-11.543-19.6035-5.061-17.4085-16.0965 9.21-9.616-10.6515-7.3765-11.185-5.8235 6.59 12.5465-15.182 8.5655-22.12 9.587-10.3515-.4755-29.794 1.333-32.7845-9.93 9.392-1.6155-6.793-.1-10.1175-.65H7.785zM112.875 55.435c-11.64.239 4.479 10.899 9.549 9.48 11.7085 2.5745 22.9845-5.884 34.6285-2.335C165.81 74.6635 146.97 76.8135 139.483 78.8355c-8.6825 3.465-10.2535 15.084.598 15.6675.227 5.3895-14.864.5725-20.4575 3.69-27.687 3.9635-56.023 4.583-83.6795.245-11.94-.5175-24.989 6.3645-28.399 18.3865 8.47 9.3675 20.9075-2.446 30.709-3.471 12.7515-4.4505 25.722 1.054 36.9425 6.9515 9.835 4.3245 20.882 6.999 31.6 4.8295 10.7625 2.1125 19.4595-14.609 29.6965-6.7795-2.0575 15.467 25.23-.5365 22.1835 17.0595-.6825 13.6365-19.871 11.7925-22.4485 23.62-.161 12.855 15.882 16.508 25.987 16.3105 10.063-3.349 2.361-17.255 12.103-22.38 6.342-5.811 13.9695-10.86 22.294-13.0915 11.129-1.029 18.1965 13.8765 29.6545 9.1465 5.9115 1.4185 11.0615-.855 4.567-5.705-6.2085-10.8535-18.341-13.539-29.5155-14.946-6.673.464-25.03-7.66-11.2965-12.3295 11.2475-2.8655 21.3525 4.58 31.031 8.9025 12.6475 1.509 7.073-14.0855 6.0765-21.0535-4.7625-11.5615-18.4645-7.575-28.064-7.092-5.1265 1.629-14.574-2.233-6.061-6.207 3.5155-10.0915-19.458-5.51-12.229-15.4325 8.4955-7.144 20.652-9.262 31.3795-7.4975 8.1345 3.338-12.448 13.5465.993 12.726 11.3295-2.131 22.926-3.4725 34.2905-1.321 6.8475.6565 10.2115-8.8065 1.061-7.59-11.157 2.596-24.826 6.875-31.9905-5.197-10.3455-5.5615-22.747.741-33.42-3.4295-8.51-3.654 5.1295-15.5195-6.256-11.0305-9.9595 3.145-20.336 2.636-30.557 1.444-9.2175-1.0345-18.6555-.866-27.5525 1.9455-1.9275.3145-3.9015.4975-5.848.228zM329.223 50.6495c13.9015 4.4865-3.1385 19.4415-12.1675 15.802-11.795 1.192-24.0815.873-35.3405 3.1245-9.268-2.367-1.3895-8.212 4.213-5.393 10.629-.986 21.103-4.086 31.1685-7.4875 4.091-1.917 7.9015-4.4115 12.1265-6.046zM298.2855 81.2745c8.8625.3105 5.326 14.012 7.825 17.553-13.22 3.4075 6.8975 10.685 5.8975.0295-4.408-7.609 4.815-6.0165 5.1015.5785 6.63 3.2915 16.292 4.725 24.011 9.1545 6.491 7.4795-8.244 18.03-12.2465 25.2945-7.6405 3.248-16.544 15.454-3.5675 18.1765 4.0585 1.269 14.771 11.974 4.1785 6.642-10.152-3.1035-19.1645-11.0255-30.1155-10.096-8.2035 2.703-27.5175-1.7665-14.892-11.547 3.7805-2.175 17.3875-9.165 6.349-10.191-7.9785 3.9265-16.3785-4.5875-6.2665-8.887 5.378-1.391 23.658-2.2265 15.3815-10.691-4.2645-1.053-17.9065-3.3735-6.486-6.2085 5.61-5.7515-11.046-19.0285 4.83-19.808zM133.16 225.0905c-12.861-3.338-24.4905 5.5045-34.772 11.888-7.703 8.5-21.7905 14.7375-30.0165 3.5075-10.157-8.703-24.997 3.3375-15.14 14.089 5.3765 10.8145 17.706 13.091 26.1615 20.509 7.9265 5.6765 17.6565-.849 26.344 2.772 13.321 2.8315 21.5915 15.6585 24.114 28.2565 1.23 11.166 10.371 10.7475 17.957 6.0015 7.669.696 13.3465 8.064 21.074 10.094 7.203 2.836 16.4385 5.62 23.4715 1.357 6.91-7.9885-20.522-13.64-5.1295-13.568 10.952-.1045 21.773 2.928 32.74 1.8245 8.051-11.054-8.8025-21.9285-18.6315-15.415-10.989 3.708-23.6805 3.5235-32.597-4.6145-8.8305-2.4675-17.144-12.512-5.8505-17.221-2.235-13.6265-17.679-4.187-26.181-7.4165-8.622-1.54-26.208-11.643-11.7235-18.87 4.595-4.789 17.8375 8.226 13.7285-2.8385-2.043-8.2395-18.6145 1.2795-15.5715-7.5135 5.8765-6.6255 18.4555 8.4775 20.2315-.4575-2.293-3.8155-18.333-5.405-12.2915-9.09 2.2085.031 5.8375-1.164 2.0825-3.2945zM353.8325 184.93c5.8445-2.663 21.579 2.46 8.9765 7.07-8.708 3.143-24.507 2.4215-28.6325 8.475 5.011 10.082-9.299 14.5895-16.219 10.4365-4.249 3.839-16.5125 7.627-11.454-2.6115 6.0135-3.785 22.9995-6.5065 11.5615-14.853 6.2125-6.0895 16.2885-2.149 23.7705-5.9985 3.9515-1.0415 7.935-2.015 11.997-2.5185zM309.754 289.3365c13.536 3.631-14.4435 14.7755-2.0775 11.0595 6.074 1.454 9.4445 7.366 15.361 1.694 9.6745-3.8905 20.326.0235 29.0645-6.1055 6.0375-.7245 4.5565 7.6855 7.9505 10.9875-2.738 11.072-16.7565 9.2435-25.5 11.485-13.211 2.6165-26.566 4.9405-39.619 8.09-7.8545 3.458-3.813 15.371 4.5625 9.498 10.8455-3.1405 22.217-4.1745 32.3895 1.287 7.888 2.298 27.1765-7.927 25.8235 5.647-8.4605 9.6435-21.0905.22-31.6725 2.296-6.7795.5825-25.3075-2.844-18.009 9.368 2.791 10.1825-16.442 9.292-23.732 8.0895-5.8615-1.5695-.288-18.862-13.081-13.6165-11.7075 1.0075-24.298 2.453-35.1705-3.111-6.405-10.9145 12.7995-7.727 15.5075-7.253 7.568-8.2285 20.7255-1.983 29.3075-8.4995 6.3475-6.7515-8.133-18.4445 4.728-21.1125 6.251-1.086 1.8725-3.7775 1.7915-5.901 5.097-7.215 13.38-13.21 22.3755-13.9025zM210.3745 332.951c8.6155-6.4795 18.2445 9.502 5.667 11.058-11.8715.535-23.477 4.311-35.075 3.992-9.4575 3.0375-21.191-10.57-7.911-13.6795 8.4135-3.4325 17.2265-.887 25.7695-.021 3.889.028 7.749-.577 11.5495-1.3495z"/><path d="M118.2385 292.93c12.095 6.1775-5.496 13.645-7.7995 20.0415.369 7.4525 18.2925 15.636 6.3645 21.9405-11.223 2.948-10.459 16.7835-6.823 24.507-2.799 8.187-6.8725 14.155.297 10.685 7.534 3.616 1.185 11.662-2.653 11.869 4.283 3.162 6.2345 20.401-5.3605 15.7505-7.5735-8.3045-3.5745-16.2335-10.3855-24.9735-11.3025-2.2815-13.552-24.8845.042-24.85 6.856-4.8515-7.6335-2.252-6.142-7.785-5.593-4.421-25.077 3.6235-19.8175-9.1275 9.246-6.884 21.408-.447 31.69-3.5325 11.502-6.5115 7.2765-22.6585 14.8345-32.0905 1.4075-1.658 3.604-2.532 5.753-2.4345zM32.8475 364.095c-2.769 8.68 16.9105 22.176.46 25.0875-9.042 1.481-19.2075 2.933-25.5225 10.3225 23.552-.161 47.1205.33 70.6615-.27 9.2475-1.2935 10.4085-15.504-.731-11.711-9.437-3.4005-19.895 8.897-27.179-.4915-5.837-7.709-12.0965-15.2715-17.689-22.9375zm114.9375 19.4735c-2.8315 11.954-20.5445 3.978-25.04 13.921 8.5805 8.4085 17.608-4.258 26.425-4.2545 11.6045 2.1865 22.858 8.04 35.047 5.6195 6.2575 1.352 19.75-7.987 7.6115-9.6215-10.126-.91-20.0575-1.709-30.1615-.353-6.5065 1.2655-12.3405-17.2135-16.452-8.135.9655.8525 1.845 1.7545 2.57 2.8235zM343.2065 209.755c-8.0325 5.766 2.678 17.6655 8.4355 21.428 7.915 11.477-3.408 22.496-13.9485 25.996-7.4665 5.056-15.8355 14.237-25.5995 8.643-10.7665-4.701-11.045-18.9395-2.907-26.322 3.788-2.715 11.6275-17.187 1.8985-10.965-10.9375 6.647-5.188-16.756-10.852-11.896-2.7405 13.1475-8.905 26.5745-20.81 33.7485-7.8615 7.7775-18.2115 10.8615-27.687 15.8965-11.25 8.714-3.0785 23.0665 6.9155 28.6175 4.611 5.7965 16.96 20.558 22.3915 10.6035-4.8755-10.8945-20.818-11.455-23.9975-23.5915 5.886-10.5595 18.43.669 25.4715 4.5575 8.2775 4.7325 10.4545-4.9405 1.8745-6.733-7.8045-3.871-2.9555-14.5965 5.0985-9.1135 11.0125 4.959 22.0415 10.182 32.662 15.748 9.3975 8.8565 19.3105 17.056 29.036 25.537 7.5925 9.9785 26.69 5.1205 21.9155-9.0565-2.548-6.393 4.3505-22.237-8.0065-16.519-9.112-.34-20.1645.671-28.335-3.7615-1.3855-7.8525 6.072-14.1255 11.026-19.391 6.1495-5.6115 13.7445-9.5565 21.758-11.5565 7.1255-5.187 3.079-14.585-5.471-13.38-7.1555-8.0855-7.6405-21.327-17.1785-27.5525-1.1525-.545-2.4065-.9225-3.6905-.9375zM25.582 231.535c-8.949 2.1155-25.7695 1.63-30.297 11.72-.412 12.6665 13.3365-2.3325 20.0315-1.6475 14.1515-3.6295 29.122.1965 42.038 6.282 10.168-5.395-8.2895-10.076-12.9955-11.775-6.0055-2.3445-12.245-4.591-18.777-4.5795zm-30.297 52.97c-.352 9.245-.2905 22.9825-.0385 29.442 13.5475-5.62 25.9655-5.9355 35.0885-13.373 4.127-12.717-13.1835-17.116-22.599-17.749-3.38-.1915-6.8685.18-12.451 1.68z"/></g><g fill="#17181f"><path d="M95.02 124.196c-1.1895.9285-.6715 1.65 0 0z" opacity=".6"/><path d="M290.4415 102.0395c.878.0505.2525-.334 0 0zM357.473 192.3365c1.285-.4345-.427-1.12 0 0zM52.3955 305.243h.109-.109zM281.4725 372.952c-9.5685.076-18.196 2.217-27.135 4.5795-8.996 4.1955 11.4675 7.458.0595 10.1255-9.8335.13-1.736 7.485 3.7305 4.1595 7.7445-2.579 14.6615-6.025 22.826-6.1605 2.998-8.166-18.2085.0705-8.3845-7.8395 1.272-1.453 13.737-1.0665 8.9035-4.8645zM250.66 285.517c-5.0935 9.535 1.6845 19.3555 11.6645 21.309 7.371 5.047 11.993 19.964-.3765 21.691-6.981 3.6335-15.8095 7.1815-22.693 1.284-10.0295-4.2105-5.825-15.673-7.9565-23.298-4.1925 4.789-4.586 15.763-6.2945 23.1355-4.1505 9.108-14.682 13.007-19.8765 21.4505-2.9795 7.318-7.3805 13.807-9.9065 21.309-.4905 8.9715 2.3095 18.1955-.31 27.1065 13.4125 2.887 4.2715-12.952 6.983-19.91 2.6725-12.6815 12.223 1.1125 5.85 6.581-8.609 6.818 12.1405 17.8775 10.255 11.331-8.0025-6.707-.3395-16.7705-4.755-25.0675-5.1915-9.601 4.0875-17.1025 12.9525-17.482 3.5695-2.64 7.989-8.126 4.6005-.3125-3.7095 7.2415 3.5805 13.971 3.374 2.7505 3.0955-11.898 8.314 13.9475 13.6915 6.7855-1.0365-4.263-9.2605-15.713-.121-8.6335 4.5355 4.725 10.775 1.011 4.18-3.7845-4.2595-8.71 9.321-13.005 16.512-12.198 6.8445-2.956 17.171-6.473 17.9015-15.215-2.842-11.546 11.6635-13.7055 19.709-11.142 12.0005.811 23.7605-2.7695 35.31-5.511 7.2655-1.1785 19.434-16.164 4.773-13.784-9.7485-4.6495-17.3885 9.3045-28.3945 4.932-15.005-.561-29.637 11.2455-44.404 3.9905-9.1935-3.542-14.877-11.958-22.6685-17.318zM59.4265 174.9615c11.354 1.9445.8605 12.2555-3.9255 15.846-2.403 11.1125 8.626-4.347 12.8865-3.164 8.3925 6.13-11.2015 11.4765-5.9645 19.7845 5.3575 5.6555 13.889 13.6895 1.3645 14.892 1.701 1.644 6.916-.1665 8.0215 3.9065 4.562-2.347 16.439-5.2365 7.708 2.1985-12.7845 2.0255.8555 12.1615 3.994 17.596.8565 7.807-9.254-5.048-12.8725-5.2505-12.1775-3.0365-5.1495-20.1805-18.6525-20.126-4.298-4.9685-6.7245-14.4805-8.1155-21.546 6.129-6.198-2.079-18.2685 9.15-20.934 1.6015-2.072 4.519-1.59 6.406-3.203zM100.723 108.149c11.2725 2.7045-11.982 18.6845-1.4255 13.9515 9.185.9755 5.837 18.3655 1.4355 23.663-9.8155 2.0655-9.764 14.0245-18.06 17.5885-2.3205 5.346-14.032 8.7705-9.8815-.432-3.0345-10.7355-14.4275 3.8-21.556-1.749-5.9885-.969-15.277 8.29-14.406-3.1995-1.8825-2.881-1.4625-14.6495 2.232-7.619-1.5355 9.0575 5.3 3.061 3.7185-2.5095 4.867-3.296.558 13.743 9.3445 9.4995 6.1175 1.0975 18.149-1.048 14.8205-9.0875 12.3765-2.4055-8.6365-14.557 2.604-14.6985 2.748 11.0185 11.398 1.7435 7.475-5.5875 1.717-8.586 7.1185-3.36 5.634 2.7795 1.491-3.703 4.1705-15.4295 11.5845-18.7755 1.973-1.5315 3.775-3.6945 6.4805-3.824zM229.1605 100.4615c10.298-2.709 3.3845 15.811 13.543 8.3735 7.974 4.706-1.684 9.002-2.8635 12.8345 4.408 1.7575 9.6255 3.3285 5.1685 8.918 4.3435 1.3045 11.6775 2.1995 17.0195 2.7025 6.559-1.238 10.4845-4.9125 13.6965-10.52 7.544 3.1195-14.102 13.017-2.211 11.325-.172 6.39-12.4095.9785-16.5705 3.799-6.81 4.5365-14.651 2.5145-17.7645-5.5785-11.3285-2.876-15.9435-15.8425-16.209-25.9715.872-2.812 2.9285-5.809 6.191-5.8825z"/><path d="M135.0665 112.743c8.653.3085-.375 15.9495 10.856 10.74 8.992-8.6135 16.445 8.0435 12.79 15.3895-4.269 4.276-6.208 13.142-10.404 15.513.553-4.6155.8215-9.039-3.6225-9.5665 4.9535-3.6065 15.7445-16.361 2.256-15.537-4.8075 4.146-7.652 12.221-13.223 14.75-1.963-2.985.8765-4.507-1.714-6.4925 6.8135.909 12.167-12.2615 2.377-7.674-2.407 2.5475-9.818 14.371-8.4925 4.38.0555-5.071 13.167-9.067 3.7395-11.284-8.7775.926-12.2375 14.683-20 13.875.1455-4.2525 16.737-13.053 4.971-11.169-3.2735 3.783-13.115 3.3-5.6365-2.146 9.018-1.4105 15.522-8.81 24.338-10.6115l1.765-.167zM372.785 114.552c-10.777 2.5175-20.555 7.961-30.8475 11.895-11.9475 2.692-4.382 13.521 2.742 16.557 6.9685 7.558-15.2305 5.17-6.7515 10.6175 4.376-.677 17.589-.581 8.6195 5.339-4.428 3.1935-4.911 10.5205-6.0575 15.083 12.569 2.893 6.127-18.0595 19.639-17.1465 5.546-2.886 5.051-12.0345 12.656-8.5765.9975-7.3085-.1115-10.154-7.5165-7.382-4.4625 1.8515-16.428-4.6965-5.9755-4.7715 5.2935 1.8685 14.569-4.002 4.2765-3.89-1.1385-2.8335 10.06-4.9615 1.5505-5.708-3.9535 1.3485-13.5635 10.9865-14.467 2.8235 4.6735-8.154 23.885-5.1565 22.132-14.8405zM175.7845 283.633c8.0555-1.3975 14.1135-5.7115 13.2925-14.666.9385-4.152 4.5165-18.89 7.9385-8.421 2.242 6.074-7.2315 18.234 4.67 14.0425 5.4435-1.16 16.3655-.8435 18.1195 3.8525-8.418 3.305-18.8635 1.0055-26.44 4.18-2.799 4.757-15.08 6.89-17.5805 1.012zM239.2075 151.7895c10.009-4.5485 8.321 9.2675 2.4935 12.8325-3.05 4.872-.5675 17.5655 1.8295 6.5985 2.5465-9.142 13.1775-7.1685 18.943-12.8555 5.5205-3.208 20.525 7.452 8.826 10.8375-5.306 1.0925-9.786 13.442-2.266 6.0355 2.2855-5.9795 6.9725-1.9005 8.2305-1.4735 2.555-12.674 15.1385-4.6255 23.3585-3.843 13.5765.079 6.305 18.659-2.364 19.9055-5.2045-.8215-21.289.4745-17.6295 6.822 5.734-5.404 22.5725-4.972 16.456 5.9885-4.884 8.019-16.425 1.3785-21.1525 10.164-7.604 7.0385-11.0485 17.1425-17.916 24.8745-6.514 5.9515-11.0775 14.704-7.6515 23.6255.1145-9.589 5.3315-23.374 15.905-24.0275 1.911 3.828-2.7345 20.8635 4.719 12.0565-.2885-5.873-2.704-21.7585 7.439-12.84 3.37 4.5665 15.355-1.603 5.4985-3.09-10.572.071-8.7845-17.622-.742-21.1955 6.221-5.9315 12.3075.689 13.0725 5.4835 2.573-7.9435 6.6265-15.4535 9.9195-23.11 2.274-7.846 11.594-12.614 10.8825-21.359-2.9205-6.6545-9.1875-8.288-15.6725-10.883-4.271-5.9025-14.888.6875-21.6105-2.043-8.267-3.084-12.1765-13.268-21.0555-14.9445-8.4205 2.323-15.803 3.792-22.744-2.782-5.8975-3.154-17.433-10.734-19.4115.4495-4.0815 5.8805-11.39-7.0405-18.255-5.1745-9.281-2.7885-18.9115 5.7885-19.11 14.882 4.666-1.978 9.561-4.825 12.2755 1.6615 4.3155-.9985 8.169-11.3415 14.822-4.9985 1.8195 7.506-8.18 11.57-11.75 17.265-2.127 6.8465-18.041 7.039-15.7405 10.2835 4.9825-2.434 12.9165-1.7895 11.754 3.871 3.8065-2.132 6.608-17.023 10.238-5.991 1.6375 6.071 16.473 9.0355 7.46 1.4515-6.2035-4.8025-6.623-15.989 1.5305-18.9805 9.6925-5.0795 12.415 8.0705 4.223 12.06-6.9155 7.9655 8.1295-3.408 3.165 5.4025 4.174 6.926 3.3105-7.1355 5.06-10.1505 4.344-5.515 11.7145-7.7185 16.97-12.809zM352.9575 195.149c5.1745 6.686-10.173 19.428 3.9495 20.713 3.536 2.7295 18.8265-1.2635 10.5625 5.0085-6.58 1.3365-22.715-3.0155-18.465 8.842 1.1045 7.2575-11.0975 12.246-.8505 17.2695 3.528 5.9105 4.397 13.197 13.292 11.0805 5.0525-1.39 14.868 4.165 5.6135 6.283-11.775-5.0015-14.767 8.304-13.715 17.1415.57 5.961-5.5005 10.056-4.168 1.7075-.2905-6.3575-5.6715-22.5-13.158-13.2875-5.6215 3.481-10.6295 16.0305-17.9455 10.862 3.6185-8.8545 15.326-11.852 19.289-20.927 1.6325-7.451 2.537-23.3085-9.7235-18.648-8.8465 5.1825-21.431-2.868-12.617-11.9485 8.978-3.1655 17.8615 9.9 26.5435 2.876 4.701-7.806-1.5875-15.7345-5.5405-21.9 2.7605-3.8495 10.5875 1.4235 10.423-6.8745 1.3655-3.156 3.0955-6.9005 6.51-8.198zM45.0205 58.4935c4.341 5.084-3.86 18.047 7.782 16.588 3.339 8.5395 21.5325-2.631 23.316 10.845-6.3295 2.8865-12.9335-6.861-20.739-2.293-5.8995-1.775-.679 10.0995-8.125 4.297 4.183 7.7205 2.087 19.556-8.3565 20.589-8.5115-2.017-14.7955 8.574-21.2425 7.387-5.272-7.656-1.8195-22.9255 9.533-20.014 7.235.787 16.523 2.457 12.8165-8.0305-.46-5.5665-16.9045-12.867-5.2335-14.6635 6.5165.9535 2.6695-13.7315 10.249-14.705zM64.978 260.2385c-3.3945-3.7715-4.1165-17.4205-9.4375-7.2125-2.5465 4.3405-19.2265 7.423-11.21-1.0885.646-9.359-11.2255 6.8695-14.7865 9.4615-3.9515 2.09-14.3175 15.9705-3.834 9.048 7.755-3.96 4.5335 9.62 9.2055 13.0125 3.1775 10.9085.433-15.562 5.9465-3.6375.4295 3.865 5.4145 12.713 5.6575 4.1065-4.3825-5.643-10.184-15.9045 1.921-15.9915 6.7095-1.274 6.751-9.471 14.7915-6.0915l.9295-.5485.8165-1.0585zM157.4415 312.821c7.4145 3.136 11.6555 12.276 20.506 12.0325 7.931 1.1925 16.2375.7175 23.92-.7005 2.0815 2.0755-9.946 7.7155-2.599 7.412 6.9605-.9475 6.131 12.2505 3.037 15.3035-2.408-6.91-11.8195-6.859-19.0605-6.605-6.021-1.5955-11.8335-1.265-13.217 5.177-7.1335 6.4925-10.914-.7335-13.503-6.6295-4.7105-1.206-16.163.1005-16.7565-5.0775 5.784-5.384 22.971 3.883 21.7345-7.961.061-3.146-9.2555-12.249-4.0615-12.9515zM52.442 303.571c9.583 1.3425 19.2945 11.053 15.123 21.201-4.565 5.5005-9.4665 12.2535-10.913 18.315-7.3815-6.0575 4.6855-14.653 5.2535-19.5685-6.245 3.9675-10.6305-5.3575-2.3025-4.6865 3.2005-3.3285-10.043-1.531-8.689 4.2535-7.671 4.847-5.703-9.969 1.808-9.086 12.4375-1.299-6.246-6.3495-.28-10.4285zM112.1915 328.4615c4.6895 8.8555 16.5745-2.463 20.9315 5.465-2.3815 4.8955-10.741 8.43-2.782 13.6735 2.858 8.742-5.8475.6245-6.7415 1.046-2.6755 6.011 12.129 7.1725 3.5135 10.725-9.6495-1.867-5.329-23.2835-16.322-12.034-2.8935-4.675-8.9945 3.414-11.542-4.451-1.32-9.184 9.689-7.883 12.9425-14.4245zM312.008 45.661c-.1315-5.45 6.644-16.7355-4.087-11.179-4.958 1.217-18.7195-5.5825-7.4415-7.8175 5.462-6.4825-10.158-1.7385-13.6245-1.51-4.7845 1.5615-16.7645.249-17.0795 5.2255 5.928-.7135 11.4235 2.7495 5.644 8.128.493 4.2245-5.4055 16.4375 1.6535 8.102 7.508-9.714 1.186 7.024 2.6975 9.7175 6.965-2.4335 1.019-23.1795 14.465-14.095 5.912 3.2955 11.0995-4.3185 15.301 3.654l.9025.1665 1.569-.392zM99.929 82.7605c-3.5925-8.9175-.1485-22.0625 10.6155-23.674 7.1115 1.6675 16.0955 1.196 21.7115.7215-2.7 8.98-15.2565 2.694-19.703 4.8295 7.8765 8.0025-2.26 7.49-4.542 4.245-.5395 9.1565 17.877 2.2285 10.0975 11.2835-6.726 4.232-15.703-14.08-14.5555.6695.4385 1.8-2.4825 3.7665-3.624 1.925zM239.566 90.3495c5.61.99 13.7905 4.1255 16.194-3.4215 4.3835-3.256 8.6925-12.2625 14.096-10.475.7155 6.337-4.4665 10.9755-8.893 14.6125-.2775 4.0715 7.1655 3.5405 9.97 5.8875 3.182.689 15.9485 12.542 6.641 9.6235-6.7335-2.514-13.708-4.5055-19.503-9.001-6.239 3.031-17.9505.9035-18.505-7.226zM189.749 21.84c5.803 6.458-10.2825 19.4945 3.897 20.846 4.418 2.0075 20.4925-.442 9.429 5.839-6.8565-.576-22.943-3.2975-17.3605 9.0615-.613 5.984-11.0215 11.3875-1.538 16.3225 4.791 4.056 3.7695 13.271 12.541 10.6005 4.9075-.893 17.106 3.5475 7.134 6.526-11.8205-5.025-15.1475 8.552-13.587 17.483 1.141 5.5145-5.428 10.454-4.375 1.9195-.51-6.1335-5.223-22.919-12.8325-13.565-5.64 3.3885-10.95 15.304-18.024 10.6895 3.483-8.8615 15.2645-11.8905 19.2525-20.952 1.443-7.3025 2.4625-23.2755-9.639-18.726-8.819 5.1295-21.577-2.845-12.8355-12.008 9.0465-3.083 17.882 9.8965 26.681 2.8965 4.928-7.903-2.182-15.743-5.6665-22.176 2.5235-3.608 10.608 1.2785 10.09-6.647 1.2855-3.031 3.701-7.085 6.8335-8.11zM352.238 337.005c-9.657 3.638-19.901 5.382-30.196 5.497-7.2025-2.272-18.7605-3.144-18.811 6.765-4.3225 4.338 3.7125 11.0295-1.2535 15.652 3.7705 7.139 11.986 13.5685 10.0375 22.5345-4.3665 5.182-6.987 14.956 2.898 12.051 5.553 1.1675-3.02-5.499 1.3855-9.17-1.7065-7.8925 4.387-9.123 9.5745-4.387 4.583 3.9395 13.743-.1105 4.3155-2.0255-6.1445.503-5.4215-3.1125-4.13-6.8545-9.989 5.617-11.924-6.2295-14.4785-13.086-3.076-7.952-3.631-17.7795 7.693-15.9855 10.2045-3.102 10.62 9.2735 16.812 13.969 2.328 4.7 12.4465 4.4395 4.3745-.058-6.657-4.02-10.7785-17.1675 1.437-15.466 8.7085 1.1745 8.3255 13.923 18.6575 13.1395 8.295 3.23 14.8645 2.4655 12.231-7.7405-3.0765 1.122-12.944 7.707-18.315.688-8.463-3.133-4.708-11.336-.907-15.044l-1.325-.479zM307.785-.495c-3.3205 10.468 12.0005 13.4005 10.533 22.575-.2795 8.0855-2.619 20.233 6.1195 23.601 1.9315 1.134 9.3435-5.604 6.616 1.983-1.5075 9.432.086 21.5225 9.431 26.3255 7.802 3.1665 19.9885-.4585 7.56-5.803 3.0655-5.996 1.8465-9.062-5.2475-8.6795-11.4585-5.807 1.0145-14.3845 8.4715-8.108 8.0365 1.532 16.1175 3.163 21.5165 9.9565-.5835-4.4985-5.044-8.2115 0-11.148-1.8985-2.988-17.8275 2.451-9.4165-6.276 4.1845-4.388-.118-19.2445-2.4185-7.7215-.419 9.532-14.501 14.9755-19.6495 5.842-5.4965-7.8025 6.9995-11.0045 12-6.405 7.692.254-7.752-5.7765 2.1195-6.1905 3.851-7.892-10.767 3.4385-14.6185.4765-5.1755-6.1435-20.5245-5.256-19.0735-15.381 6.9175-4.5985 18.205 2.1415 23.557-7.109-10.492 3.504-20.989-1.9705-28.716-7.938h-8.784zM-2.215 49.099c-1.265 4.0715 3.1835 1.487 0 0zm0 9.875c-1.2105 5.6295 8.598 5.7945 1.0625 1.078l-1.0625-1.078zM-.918 337.4425c-2.217 4.7365 4.763 10.774-1.297 14.6645-2.442 8.908 2.663 11.2825 10.761 10.178 10.331 1.5435 22.3705 6.121 30.6195-3.067-5.1025 1.655-16.9685 5.839-24.732.784-13.542-5.551 16.526-8.597 7.08-13.7955-5.7515-.356-18.9785 14.79-17.2945 1.149 2.4775-3.364-2.54-8.394-5.137-9.913zM194.863-.448c-2.382 4.13-6.7365 20.2795 2.6005 14.245 6.7015-2.224-.3315-10.1565 4.243-14.245h-6.8435zm19.047 0c1.758 3.76 10.33 6.535 5.5465 0H213.91zM-1.3865 114.552c-2.8005 3.172.197 7.4095 3.0335 1.7165 1.5345-2.453-1.862-1.538-3.0335-1.7165zm13.609 20.609c-6.2805 3.906-17.971 1.082-14.4375 12.057 1.859 2.5135 4.6795-8.9245 10.1055-3.8405 7.0435 7.072 10.3035-6.474 4.332-8.2165z"/></g></pattern></defs><rect width="371.25" height="239.7798" x="-.6812" y="-1.3624" fill="url(#d)" stroke="#e1ee27" stroke-dasharray="0,2.91499" stroke-dashoffset="2.65" stroke-opacity=".7711" stroke-width=".265" ry="5.098" style="mix-blend-mode:screen"/><rect width="371.25" height="239.7798" x="-.6812" y="-1.3624" fill="url(#e)" stroke="#791eaa" stroke-dasharray="0,2.91499" stroke-dashoffset="2.65" stroke-width=".265" ry="5.098"/><rect width="371.25" height="239.7798" x="-.6812" y="-1.3624" fill="url(#f)" stroke="#e1ee27" stroke-dasharray="0,2.91499" stroke-dashoffset="2.65" stroke-opacity=".7711" stroke-width=".265" ry="5.6609"/><path fill="url(#g)" d="M2.7928-2.0389h368.4109c2.6684 0 4.8166 2.1413 4.8166 4.8012v232.894c0 2.6598-2.1482 4.8011-4.8166 4.8011H2.7928c-2.6683 0-6.2143 1.3032-6.1988-1.3566L-2.0237 2.7623C-2.0082.1025-.6415-4.1057 2.7928-2.039z" color="#000" style="-inkscape-stroke:none"/></svg>