<svg xmlns="http://www.w3.org/2000/svg" xmlns:xlink="http://www.w3.org/1999/xlink" width="1480" height="720" viewBox="0 0 592 288"><defs><linearGradient id="y"><stop offset="0" stop-color="#381515" stop-opacity=".49"/><stop offset="1" stop-color="#7b2d2d" stop-opacity=".69"/></linearGradient><linearGradient id="x"><stop offset="0" stop-color="#371515" stop-opacity=".49"/><stop offset="1" stop-color="#7a2e2e" stop-opacity=".69"/></linearGradient><linearGradient id="w"><stop offset="0" stop-color="#381515" stop-opacity=".4894"/><stop offset="1" stop-color="#792f2f" stop-opacity=".69"/></linearGradient><linearGradient id="v"><stop offset="0" stop-color="#42b92d"/><stop offset="1" stop-color="#42b92d" stop-opacity="0"/></linearGradient><linearGradient id="u"><stop offset="0" stop-color="#b9ae2d"/><stop offset="1" stop-color="#b9ae2d" stop-opacity="0"/></linearGradient><linearGradient id="t"><stop offset="0" stop-color="#c8261e"/><stop offset="1" stop-color="#b8342e" stop-opacity="0"/></linearGradient><linearGradient id="r"><stop offset="0" stop-color="#af0f0f" stop-opacity=".7224"/><stop offset=".9251" stop-color="#cdce24"/></linearGradient><linearGradient id="s"><stop offset="0" stop-color="#ea1616" stop-opacity=".7224"/><stop offset="1" stop-opacity=".01"/></linearGradient><linearGradient id="q"><stop offset="0" stop-color="#282a24"/><stop offset="1" stop-color="#64695b" stop-opacity="0"/></linearGradient><linearGradient id="p"><stop offset="0" stop-color="#141414"/><stop offset="1" stop-color="#141414" stop-opacity=".6923"/></linearGradient><linearGradient id="o"><stop offset="0" stop-color="#b76617" stop-opacity=".6689"/><stop offset="1" stop-color="#f3ed38" stop-opacity=".7659"/></linearGradient><linearGradient id="n"><stop offset="0" stop-color="#5e5e5e" stop-opacity=".88"/><stop offset="1" stop-color="#979797" stop-opacity="0"/></linearGradient><linearGradient id="m"><stop offset="0" stop-color="#27901c" stop-opacity=".7124"/><stop offset="1" stop-color="#51cd3a"/></linearGradient><linearGradient id="l"><stop offset="0" stop-opacity=".6488"/><stop offset="1" stop-opacity=".0502"/></linearGradient><linearGradient id="f"><stop offset="0" stop-color="#0c0707" stop-opacity=".9142"/><stop offset="1" stop-color="#251110" stop-opacity=".5123"/></linearGradient><linearGradient id="j"><stop offset=".1916" stop-color="#373232" stop-opacity=".9142"/><stop offset=".7797" stop-color="#483833" stop-opacity=".9465"/></linearGradient><linearGradient id="h"><stop offset=".0231"/><stop offset="1" stop-color="#5f5f5f" stop-opacity=".8848"/></linearGradient><linearGradient id="g"><stop offset="0" stop-color="#773331"/><stop offset="1" stop-color="#773331" stop-opacity="0"/></linearGradient><linearGradient id="k"><stop offset="0" stop-color="#b42620" stop-opacity=".9142"/><stop offset="1" stop-color="#251110" stop-opacity=".5123"/></linearGradient><linearGradient id="e"><stop offset="0" stop-color="#ac1336"/><stop offset="1" stop-color="#be1e1e" stop-opacity=".834"/></linearGradient><linearGradient id="d"><stop offset="0" stop-color="#262626" stop-opacity=".7451"/><stop offset="1" stop-color="#645959" stop-opacity=".8088"/></linearGradient><linearGradient id="c"><stop offset="0" stop-color="#d0d016"/><stop offset="1"/></linearGradient><linearGradient id="b"><stop offset="0" stop-color="#16d0b4"/><stop offset="1"/></linearGradient><linearGradient id="i"><stop offset="0" stop-color="#ce1616"/><stop offset="1"/></linearGradient><linearGradient id="a"><stop offset="0" stop-color="#d0c848"/><stop offset="1" stop-color="#d09848" stop-opacity=".4596"/></linearGradient><linearGradient xlink:href="#e" id="az" x1="236.7202" x2="273.5688" y1="183.7946" y2="183.7946" gradientUnits="userSpaceOnUse"/><linearGradient xlink:href="#g" id="ac" x1="-12.4666" x2="114.5592" y1="26.8424" y2="26.8424" gradientUnits="userSpaceOnUse"/><linearGradient xlink:href="#h" id="ab" x1="-7.7575" x2="109.8501" y1="26.8424" y2="26.8424" gradientUnits="userSpaceOnUse"/><linearGradient xlink:href="#i" id="as" x1="20.7202" x2="10.5719" y1="61.0961" y2="56.196" gradientUnits="userSpaceOnUse"/><linearGradient xlink:href="#h" id="af" x1="-7.7575" x2="109.8501" y1="26.8424" y2="26.8424" gradientTransform="matrix(.991 0 0 -1.2257 2.5045 319.8955)" gradientUnits="userSpaceOnUse"/><linearGradient xlink:href="#g" id="ag" x1="-12.4666" x2="114.5592" y1="26.8424" y2="26.8424" gradientTransform="matrix(.991 0 0 -1.2257 2.5045 319.8955)" gradientUnits="userSpaceOnUse"/><linearGradient xlink:href="#m" id="Z" x1="-21.2164" x2="127.4834" y1="158.7277" y2="158.7277" gradientUnits="userSpaceOnUse" spreadMethod="pad"/><linearGradient xlink:href="#n" id="z" x1="271.0876" x2="505.0675" y1="186.2325" y2="286.1939" gradientTransform="translate(-2.9632 -.5926)" gradientUnits="userSpaceOnUse"/><linearGradient xlink:href="#o" id="K" x1="416.3997" x2="354.2573" y1="197.2951" y2="221.5492" gradientUnits="userSpaceOnUse"/><linearGradient xlink:href="#p" id="L" x1="384.9484" x2="391.3085" y1="205.9057" y2="205.9057" gradientUnits="userSpaceOnUse"/><linearGradient xlink:href="#q" id="M" x1="413.2341" x2="452.249" y1="263.8532" y2="263.8532" gradientUnits="userSpaceOnUse"/><linearGradient xlink:href="#w" id="A" x1="357.9009" x2="373.9009" y1="278" y2="278" gradientTransform="matrix(1.247 0 0 1.247 -88.369 -70.6354)" gradientUnits="userSpaceOnUse"/><linearGradient xlink:href="#x" id="E" x1="365.7126" x2="381.7126" y1="262.0136" y2="262.0136" gradientTransform="matrix(1.247 0 0 1.247 -88.369 -70.6354)" gradientUnits="userSpaceOnUse"/><linearGradient xlink:href="#y" id="C" x1="373.9387" x2="389.9387" y1="278" y2="278" gradientTransform="matrix(1.247 0 0 1.247 -88.369 -70.6354)" gradientUnits="userSpaceOnUse"/><linearGradient xlink:href="#h" id="ad" x1="-7.7575" x2="109.8501" y1="26.8424" y2="26.8424" gradientUnits="userSpaceOnUse"/><linearGradient xlink:href="#g" id="ae" x1="-12.4666" x2="114.5592" y1="26.8424" y2="26.8424" gradientUnits="userSpaceOnUse"/><filter id="aB" width="1.072" height="1.2663" x="-.036" y="-.1332" color-interpolation-filters="sRGB"><feGaussianBlur stdDeviation=".4"/></filter><filter id="ax" width="1.0456" height="1.1252" x="-.0228" y="-.0626" color-interpolation-filters="sRGB"><feGaussianBlur stdDeviation=".1518"/></filter><filter id="au" width="1.7113" height="2.9524" x="-.3556" y="-.9762" color-interpolation-filters="sRGB"><feGaussianBlur in="SourceAlpha" result="result1" stdDeviation="5"/><feComposite in2="result1" k1="-1" k2="3.2" k4="-2" operator="arithmetic" result="result3"/><feColorMatrix result="result2" values="1 0 0 0 0 0 1 0 0 0 0 0 1 0 0 0 0 0 10 0"/><feComposite in="SourceGraphic" in2="result2" operator="out" result="fbSourceGraphic"/><feBlend in="result1" in2="fbSourceGraphic" mode="multiply" result="result91"/><feBlend in="fbSourceGraphic" in2="result91" mode="screen"/></filter><filter id="aC" width="1.0251" height="1.0245" x="-.0125" y="-.012" color-interpolation-filters="sRGB"><feGaussianBlur stdDeviation=".1846"/></filter><filter id="ap" width="1.0213" height="1.0171" x="-.0107" y="-.0085" color-interpolation-filters="sRGB"><feGaussianBlur stdDeviation=".139"/></filter><filter id="aa" width="1.3783" height="1.214" x="-.1891" y="-.107" color-interpolation-filters="sRGB"><feMorphology in="SourceGraphic" radius="4" result="result0"/><feGaussianBlur in="result0" result="result91" stdDeviation="8"/><feComposite in="SourceGraphic" in2="result91" operator="in"/></filter><filter id="ah" width="1.5853" height="1.5792" x="-.2927" y="-.2896" color-interpolation-filters="sRGB"><feGaussianBlur stdDeviation="5.3915"/></filter><filter id="aj" width="1.4684" height="1.4682" x="-.2892" y="-.2005" color-interpolation-filters="sRGB"><feGaussianBlur stdDeviation=".3811"/></filter><filter id="al" width="1.4684" height="1.4682" x="-.2892" y="-.2005" color-interpolation-filters="sRGB"><feGaussianBlur stdDeviation=".3811"/></filter><filter id="an" width="1.4727" height="1.4717" x="-.2911" y="-.2021" color-interpolation-filters="sRGB"><feGaussianBlur stdDeviation=".4087"/></filter><filter id="J" width="1.7543" height="1.8453" x="-.3772" y="-.4227" color-interpolation-filters="sRGB"><feGaussianBlur in="SourceAlpha" result="result1" stdDeviation="5"/><feComposite in2="result1" k1="-1" k2="3.2" k4="-2" operator="arithmetic" result="result3"/><feColorMatrix result="result2" values="1 0 0 0 0 0 1 0 0 0 0 0 1 0 0 0 0 0 10 0"/><feComposite in="SourceGraphic" in2="result2" operator="out" result="fbSourceGraphic"/><feBlend in="result1" in2="fbSourceGraphic" mode="multiply" result="result91"/><feBlend in="fbSourceGraphic" in2="result91" mode="screen"/></filter><filter id="O" width="1.0812" height="1.075" x="-.0406" y="-.0375" color-interpolation-filters="sRGB"><feGaussianBlur stdDeviation=".6602"/></filter><filter id="R" width="2.8191" height="4.5343" x="-.9096" y="-1.7671" color-interpolation-filters="sRGB"><feGaussianBlur in="SourceAlpha" result="result1" stdDeviation="5"/><feComposite in2="result1" k1="-1" k2="3.2" k4="-2" operator="arithmetic" result="result3"/><feColorMatrix result="result2" values="1 0 0 0 0 0 1 0 0 0 0 0 1 0 0 0 0 0 10 0"/><feComposite in="SourceGraphic" in2="result2" operator="out" result="fbSourceGraphic"/><feBlend in="result1" in2="fbSourceGraphic" mode="multiply" result="result91"/><feBlend in="fbSourceGraphic" in2="result91" mode="screen"/></filter><filter id="T" width="2.8191" height="4.5343" x="-.9096" y="-1.7671" color-interpolation-filters="sRGB"><feGaussianBlur in="SourceAlpha" result="result1" stdDeviation="5"/><feComposite in2="result1" k1="-1" k2="3.2" k4="-2" operator="arithmetic" result="result3"/><feColorMatrix result="result2" values="1 0 0 0 0 0 1 0 0 0 0 0 1 0 0 0 0 0 10 0"/><feComposite in="SourceGraphic" in2="result2" operator="out" result="fbSourceGraphic"/><feBlend in="result1" in2="fbSourceGraphic" mode="multiply" result="result91"/><feBlend in="fbSourceGraphic" in2="result91" mode="screen"/></filter><filter id="V" width="2.8191" height="4.5343" x="-.9096" y="-1.7671" color-interpolation-filters="sRGB"><feGaussianBlur in="SourceAlpha" result="result1" stdDeviation="5"/><feComposite in2="result1" k1="-1" k2="3.2" k4="-2" operator="arithmetic" result="result3"/><feColorMatrix result="result2" values="1 0 0 0 0 0 1 0 0 0 0 0 1 0 0 0 0 0 10 0"/><feComposite in="SourceGraphic" in2="result2" operator="out" result="fbSourceGraphic"/><feBlend in="result1" in2="fbSourceGraphic" mode="multiply" result="result91"/><feBlend in="fbSourceGraphic" in2="result91" mode="screen"/></filter><filter id="W" width="1.1163" height="1.0317" x="-.0581" y="-.0159" color-interpolation-filters="sRGB"><feGaussianBlur stdDeviation=".2135"/></filter><filter id="X" width="1.0686" height="1.0342" x="-.0343" y="-.0171" color-interpolation-filters="sRGB"><feGaussianBlur stdDeviation=".2831"/></filter><filter id="Y" width="1.0526" height="1.0354" x="-.0263" y="-.0177" color-interpolation-filters="sRGB"><feGaussianBlur stdDeviation=".3586"/></filter><filter id="F" width="2.4435" height="2.4435" x="-.7217" y="-.7217" color-interpolation-filters="sRGB"><feColorMatrix in="SourceGraphic" type="saturate" values="0"/><feColorMatrix result="result0" values="3 0 0 0 -0.3 0 3 0 0 -0.3 0 0 3 0 -0.3 0 0 0 1 0"/><feTurbulence baseFrequency=".111" numOctaves="2" type="fractalNoise"/><feColorMatrix values="0 0 0 0 0 0 0 0 0 0 0 0 0 0 0 0 0 0 255 -200"/><feGaussianBlur stdDeviation="1"/><feComposite in2="result0" operator="atop" result="fbSourceGraphic"/><feColorMatrix in="fbSourceGraphic" result="fbSourceGraphicAlpha" values="0 0 0 -1 0 0 0 0 -1 0 0 0 0 -1 0 0 0 0 1 0"/><feGaussianBlur in="fbSourceGraphicAlpha" result="result1" stdDeviation="5"/><feComposite in2="result1" k1="-1" k2="3.2" k4="-2" operator="arithmetic" result="result3"/><feColorMatrix result="result2" values="1 0 0 0 0 0 1 0 0 0 0 0 1 0 0 0 0 0 10 0"/><feComposite in="fbSourceGraphic" in2="result2" operator="out" result="fbSourceGraphic"/><feBlend in="result1" in2="fbSourceGraphic" mode="multiply" result="result91"/><feBlend in="fbSourceGraphic" in2="result91" mode="screen"/></filter><filter id="I" width="1.0197" height="1.0553" x="-.0098" y="-.0277" color-interpolation-filters="sRGB"><feColorMatrix in="SourceGraphic" type="saturate" values="0"/><feColorMatrix result="result0" values="3 0 0 0 -0.3 0 3 0 0 -0.3 0 0 3 0 -0.3 0 0 0 1 0"/><feTurbulence baseFrequency=".111" numOctaves="2" type="fractalNoise"/><feColorMatrix values="0 0 0 0 0 0 0 0 0 0 0 0 0 0 0 0 0 0 255 -200"/><feGaussianBlur stdDeviation=".0817"/><feComposite in2="result0" operator="atop"/></filter><filter id="B" width="2.4435" height="2.4435" x="-.7217" y="-.7217" color-interpolation-filters="sRGB"><feColorMatrix in="SourceGraphic" type="saturate" values="0"/><feColorMatrix result="result0" values="3 0 0 0 -0.3 0 3 0 0 -0.3 0 0 3 0 -0.3 0 0 0 1 0"/><feTurbulence baseFrequency=".111" numOctaves="2" type="fractalNoise"/><feColorMatrix values="0 0 0 0 0 0 0 0 0 0 0 0 0 0 0 0 0 0 255 -200"/><feGaussianBlur stdDeviation="1"/><feComposite in2="result0" operator="atop" result="fbSourceGraphic"/><feColorMatrix in="fbSourceGraphic" result="fbSourceGraphicAlpha" values="0 0 0 -1 0 0 0 0 -1 0 0 0 0 -1 0 0 0 0 1 0"/><feGaussianBlur in="fbSourceGraphicAlpha" result="result1" stdDeviation="5"/><feComposite in2="result1" k1="-1" k2="3.2" k4="-2" operator="arithmetic" result="result3"/><feColorMatrix result="result2" values="1 0 0 0 0 0 1 0 0 0 0 0 1 0 0 0 0 0 10 0"/><feComposite in="fbSourceGraphic" in2="result2" operator="out" result="fbSourceGraphic"/><feBlend in="result1" in2="fbSourceGraphic" mode="multiply" result="result91"/><feBlend in="fbSourceGraphic" in2="result91" mode="screen"/></filter><filter id="G" width="1.0197" height="1.0553" x="-.0098" y="-.0277" color-interpolation-filters="sRGB"><feColorMatrix in="SourceGraphic" type="saturate" values="0"/><feColorMatrix result="result0" values="3 0 0 0 -0.3 0 3 0 0 -0.3 0 0 3 0 -0.3 0 0 0 1 0"/><feTurbulence baseFrequency=".111" numOctaves="2" type="fractalNoise"/><feColorMatrix values="0 0 0 0 0 0 0 0 0 0 0 0 0 0 0 0 0 0 255 -200"/><feGaussianBlur stdDeviation=".0817"/><feComposite in2="result0" operator="atop"/></filter><filter id="D" width="2.4435" height="2.4435" x="-.7217" y="-.7217" color-interpolation-filters="sRGB"><feColorMatrix in="SourceGraphic" type="saturate" values="0"/><feColorMatrix result="result0" values="3 0 0 0 -0.3 0 3 0 0 -0.3 0 0 3 0 -0.3 0 0 0 1 0"/><feTurbulence baseFrequency=".111" numOctaves="2" type="fractalNoise"/><feColorMatrix values="0 0 0 0 0 0 0 0 0 0 0 0 0 0 0 0 0 0 255 -200"/><feGaussianBlur stdDeviation="1"/><feComposite in2="result0" operator="atop" result="fbSourceGraphic"/><feColorMatrix in="fbSourceGraphic" result="fbSourceGraphicAlpha" values="0 0 0 -1 0 0 0 0 -1 0 0 0 0 -1 0 0 0 0 1 0"/><feGaussianBlur in="fbSourceGraphicAlpha" result="result1" stdDeviation="5"/><feComposite in2="result1" k1="-1" k2="3.2" k4="-2" operator="arithmetic" result="result3"/><feColorMatrix result="result2" values="1 0 0 0 0 0 1 0 0 0 0 0 1 0 0 0 0 0 10 0"/><feComposite in="fbSourceGraphic" in2="result2" operator="out" result="fbSourceGraphic"/><feBlend in="result1" in2="fbSourceGraphic" mode="multiply" result="result91"/><feBlend in="fbSourceGraphic" in2="result91" mode="screen"/></filter><filter id="H" width="1.0197" height="1.0553" x="-.0098" y="-.0277" color-interpolation-filters="sRGB"><feColorMatrix in="SourceGraphic" type="saturate" values="0"/><feColorMatrix result="result0" values="3 0 0 0 -0.3 0 3 0 0 -0.3 0 0 3 0 -0.3 0 0 0 1 0"/><feTurbulence baseFrequency=".111" numOctaves="2" type="fractalNoise"/><feColorMatrix values="0 0 0 0 0 0 0 0 0 0 0 0 0 0 0 0 0 0 255 -200"/><feGaussianBlur stdDeviation=".0817"/><feComposite in2="result0" operator="atop"/></filter><radialGradient xlink:href="#a" id="ak" cx="247.3634" cy="134.783" r="41.2854" fx="247.3634" fy="134.783" gradientTransform="matrix(1.4807 .5809 -.668 1.7027 -48.2205 -257.205)" gradientUnits="userSpaceOnUse"/><radialGradient xlink:href="#a" id="am" cx="247.3634" cy="134.783" r="41.2854" fx="247.3634" fy="134.783" gradientTransform="matrix(1.477 .5823 -.6663 1.7069 -495.512 -242.0766)" gradientUnits="userSpaceOnUse"/><radialGradient xlink:href="#a" id="ai" cx="247.3634" cy="134.783" r="41.2854" fx="247.3634" fy="134.783" gradientTransform="matrix(1.4807 .5809 -.668 1.7027 -505.0802 -257.0926)" gradientUnits="userSpaceOnUse"/><radialGradient xlink:href="#b" id="ar" cx="26.6398" cy="57.5566" r="6" fx="26.6398" fy="57.5566" gradientTransform="matrix(1.15 -.5932 .4737 .9183 -31.0777 20.6122)" gradientUnits="userSpaceOnUse"/><radialGradient xlink:href="#c" id="aq" cx="34.5465" cy="57.9329" r="6" fx="34.5465" fy="57.9329" gradientTransform="matrix(.4318 -.9621 .7617 .3418 -25.0658 71.295)" gradientUnits="userSpaceOnUse"/><radialGradient xlink:href="#d" id="av" cx="79.4583" cy="48.4054" r="28.5877" fx="79.4583" fy="48.4054" gradientTransform="matrix(1.3824 -.9677 .6238 .8911 -61.3437 90.2323)" gradientUnits="userSpaceOnUse"/><radialGradient xlink:href="#f" id="at" cx="83.0946" cy="54.64" r="21.5083" fx="83.0946" fy="54.64" gradientTransform="matrix(1 0 0 .3839 0 33.6663)" gradientUnits="userSpaceOnUse"/><radialGradient xlink:href="#j" id="aw" cx="81.5826" cy="50.3424" r="21.5083" fx="81.5826" fy="50.3424" gradientTransform="matrix(1.8374 -1.2862 .8291 1.1844 -112.9456 101.781)" gradientUnits="userSpaceOnUse"/><radialGradient xlink:href="#k" id="aA" cx="83.0946" cy="54.64" r="21.5083" fx="83.0946" fy="54.64" gradientTransform="matrix(1 0 0 .3839 0 33.6663)" gradientUnits="userSpaceOnUse"/><radialGradient xlink:href="#l" id="ao" cx="49.9598" cy="27.0289" r="11.695" fx="49.9598" fy="27.0289" gradientTransform="matrix(1.3035 -.4258 .4812 1.4732 -34.6952 16.9466)" gradientUnits="userSpaceOnUse"/><radialGradient xlink:href="#r" id="P" cx="432.7415" cy="263.8532" r="19.5074" fx="432.7415" fy="263.8532" gradientTransform="matrix(1 0 0 1.0834 0 -22.0117)" gradientUnits="userSpaceOnUse"/><radialGradient xlink:href="#s" id="N" cx="432.7415" cy="263.8532" r="19.5074" fx="432.7415" fy="263.8532" gradientTransform="matrix(1 0 0 1.0834 0 -28.4143)" gradientUnits="userSpaceOnUse"/><radialGradient xlink:href="#t" id="Q" cx="466.9761" cy="193.2119" r="18.5966" fx="466.9761" fy="193.2119" gradientTransform="matrix(1 0 0 .8279 0 33.2602)" gradientUnits="userSpaceOnUse"/><radialGradient xlink:href="#u" id="S" cx="482.3701" cy="193.1718" r="18.5966" fx="482.3701" fy="193.1718" gradientTransform="matrix(1 0 0 .8279 0 33.2533)" gradientUnits="userSpaceOnUse"/><radialGradient xlink:href="#v" id="U" cx="497.8464" cy="193.2521" r="18.5966" fx="497.8464" fy="193.2521" gradientTransform="matrix(1 0 0 .8279 0 33.2671)" gradientUnits="userSpaceOnUse"/><path id="ay" d="M233.4823 177.2097h42.8503v13.6376h-42.8503z"/></defs><path fill="#141414" d="M-.0546.4622h592.0209v287.3452H-.0546z"/><ellipse cx="426.3059" cy="114.4656" fill="#0c631c" fill-opacity=".6453" rx="12.3482" ry="9.4081"/><ellipse cx="459.8224" cy="115.6416" fill="#0c631c" fill-opacity=".6453" rx="12.3482" ry="9.4081"/><ellipse cx="490.7908" cy="114.0736" fill="#0c631c" fill-opacity=".6453" rx="12.3482" ry="9.4081"/><path fill="#0c631c" fill-opacity=".6453" d="M421.0138 74.089h85.8492v3.9201h-85.8492z"/><ellipse cx="435.126" cy="67.0329" fill="#0c631c" fill-opacity=".6453" rx="9.0161" ry="5.8801"/><ellipse cx="488.6348" cy="68.601" fill="#0c631c" fill-opacity=".6453" rx="8.0361" ry="5.4881"/><path fill="#0c631c" fill-opacity=".6453" d="M437.8701 3.9201h67.0329v22.7363h-67.0329zM154.8422 26.6564h181.1065v86.6332H154.8422zM181.1065 5.8801h2.744v20.3843h-2.744z"/><path fill="#0c631c" fill-opacity=".6453" d="M298.7082 6.2721h4.3121v20.7763h-4.3121zM174.4424 41.9446h143.866v54.0967h-143.866z"/><path fill="#aa7f7f" fill-opacity=".3" d="m212.8394 238.887 29.5003.196-6.174 32.2857h-17.7402z" opacity=".46"/><path fill="#aa7f7f" fill-opacity=".3" d="M201.7737 268.4598h25.7854v17.1162h-25.7854zM227.5592 268.5458h25.5082v16.9322h-25.5082z" opacity=".46"/><path fill="#aa7f7f" fill-opacity=".3" d="M191.6767 271.9231h27.4418v13.7209h-27.4418zM236.027 272.2003h26.8874v13.4437H236.027z" opacity=".46"/><path fill="url(#z)" d="m363.7737 186.7876 141.0746-.392v99.626l-170.867-1.176z" color="#000" style="-inkscape-stroke:none" transform="translate(86.8833 3.0202)"/><g transform="translate(83.92 2.4276)"><rect width="19.9516" height="19.9516" x="357.9251" y="266.0484" fill="url(#A)" filter="url(#B)" rx="3.6411" ry="19.9516"/><rect width="19.9516" height="19.9516" x="377.9239" y="266.0484" fill="url(#C)" filter="url(#D)" rx="3.6411" ry="19.9516"/><rect width="19.9516" height="19.9516" x="367.6661" y="246.1137" fill="url(#E)" filter="url(#F)" rx="3.6411" ry="19.9516"/><rect width="19.9195" height="7.0879" x="357.803" y="272.2119" fill="#141414" fill-opacity=".299" filter="url(#G)" opacity=".46" rx="1.8503" ry="7.0879" style="mix-blend-mode:normal" transform="matrix(1.0145 0 0 1 -5.1762 0)"/><rect width="19.9195" height="7.0879" x="377.8447" y="272.1508" fill="#141414" fill-opacity=".299" filter="url(#H)" opacity=".46" rx="1.8503" ry="7.0879" style="mix-blend-mode:normal" transform="matrix(1.0096 0 0 1 -3.6442 0)"/><rect width="19.9195" height="7.0879" x="367.7016" y="251.9258" fill="#141414" fill-opacity=".299" filter="url(#I)" opacity=".46" rx="1.8503" ry="7.0879"/></g><g filter="url(#J)" transform="translate(82.1006 16.6212)"><path fill="url(#K)" stroke="#64695b" stroke-dashoffset="1" stroke-linecap="round" stroke-linejoin="round" stroke-opacity=".8107" stroke-width=".5992" d="m380.7913 200.9651 11.253-9.7661 9.1743 29.1007-32.6118-7.7558z"/><path fill="url(#L)" d="M391.2705 198.9763a1.2409 1.2409 0 0 0-.9015-1.5079 1.2409 1.2409 0 0 0-1.5078.9015l-2.4254 9.6371a1.2409 1.2409 0 0 0 .9015 1.5078 1.2409 1.2409 0 0 0 1.5078-.9014zm-5.146 15.357a1.5528 1.5528 0 1 0 .758-3.0115 1.5528 1.5528 0 1 0-.758 3.0116z"/></g><path fill="#b6aa35" d="M450.5874 189.6454h141.1168v7.641l-143.1957-.4158z"/><path fill="#201e09" d="M450.906 189.5948h14.1907v7.3942H450.906zM506.9552 189.5973h15.09v7.4922h-15.09zM478.7117 189.5973h15.09v7.4432h-15.09zM534.9535 189.4503h15.1894v7.7372h-15.1894zM563.0033 189.6463h14.9908v7.6392h-14.9908z"/><path fill="#201e09" fill-opacity=".2347" stroke="url(#M)" stroke-dashoffset="1" stroke-linecap="round" stroke-linejoin="round" stroke-opacity=".8107" stroke-width="1.3229" d="M417.6818 248.7275c7.6227-7.6227 24.2442-8.4607 31.5564.196 6.2818 7.4368.784 36.0645.784 36.0645h-35.4764s-4.4867-28.6378 3.136-36.2605z" transform="translate(83.92 2.4276)"/><path fill="url(#N)" d="M417.6818 242.3249c7.6227-7.6227 24.2442-8.4607 31.5564.196 6.2818 7.4368.784 36.0645.784 36.0645h-35.4764s-4.4867-28.6378 3.136-36.2605z" filter="url(#O)" style="mix-blend-mode:normal" transform="matrix(1.0102 0 0 1.0102 79.0437 11.7673)"/><g fill="url(#P)" stroke="#695e5b" stroke-opacity=".8107" stroke-width="0" transform="matrix(1.0102 0 0 1.0102 79.0437 11.7673)"><path fill="url(#Q)" stroke="none" d="M460.3795 189.8166h13.1932v6.7906h-13.1932z" filter="url(#R)"/><path fill="url(#S)" stroke="none" d="M475.7735 189.7764h13.1932v6.7906h-13.1932z" filter="url(#T)"/><path fill="url(#U)" stroke="none" d="M491.2498 189.8568h13.1932v6.7906h-13.1932z" filter="url(#V)"/><path fill="none" stroke="#ac423a" stroke-dashoffset="1" stroke-linecap="round" stroke-linejoin="round" stroke-opacity="1" stroke-width=".7347" d="m466.8063 196.5817.3893 55.4572-15.1372-.169" filter="url(#W)"/><path fill="none" stroke="#aca23a" stroke-dashoffset="1" stroke-linecap="round" stroke-linejoin="round" stroke-opacity="1" stroke-width=".7774" d="m481.981 196.5371.9605 62.4302-31.1507-.4027" filter="url(#X)"/><path fill="none" stroke="#4aac39" stroke-dashoffset="1" stroke-linecap="round" stroke-linejoin="round" stroke-opacity="1" stroke-width=".7857" d="m497.8249 196.7042.97 70.9134-47.6312-.388" filter="url(#Y)"/></g><path fill="url(#Z)" d="M1.6878 63.3835h102.6746c.2305 0-12.9153 82.0142-7.62 106.9224l8.0362 37.8005c5.2953 24.9083-.1857 45.9656-.4162 45.9656H1.6878c-.2305 0-5.2239-20.9586-.4162-45.9656l7.6441-39.7605c4.8077-25.007-7.4584-104.9624-7.2279-104.9624Z" filter="url(#aa)" transform="translate(5.1716 .7388)"/><path fill="url(#ad)" stroke="none" stroke-width=".9999" d="M-4.439 23.2003c26.156-26.156 84.8146-26.156 110.9706 0 6.3407 6.3407-3.6593 27.1411-3.6593 27.1411l-104.2948-.5197S-10.7797 29.541-4.439 23.2003z" transform="matrix(.991 0 0 1.2257 7.8521 2.93)"/><path fill="url(#af)" d="M-1.894 291.4581c25.9182 32.0603 84.0435 32.0603 109.9617 0 6.283-7.772-3.626-33.2677-3.626-33.2677l-17.8678.1102-85.479.5268s-9.272 24.8588-2.989 32.6308z" transform="translate(5.1716 -3.9734)"/><path stroke="#000" stroke-opacity=".3627" stroke-width="11.0862" d="M67.8925 179.1538a31.5534 31.8652 0 0 1-42.8823-12.0634 31.5534 31.8652 0 0 1 11.7374-43.364 31.5534 31.8652 0 0 1 42.996 11.643 31.5534 31.8652 0 0 1-11.3206 43.4769Z" filter="url(#ah)" transform="translate(5.1716 .7388)"/><path fill="#0c631c" fill-opacity=".6453" d="M403.7656 123.8737H506.863v3.136H403.7656z"/><path fill="#aa7f7f" fill-opacity=".3" d="M289.0512 199.6241a36.589 60.8431 90 0 1-28.1668 34.825 36.589 60.8431 90 0 1-64.3961.1075A36.589 60.8431 90 0 1 168 199.8264M288.6555 187.5974a36.589 60.8431 90 0 0-28.1669-34.8249 36.589 60.8431 90 0 0-64.396-.1076 36.589 60.8431 90 0 0-28.4883 34.7303" opacity=".46"/><g stroke="none" stroke-opacity="0"><path fill="url(#ai)" d="M-193.0403 116.0884a35.7854 37.0914 0 0 1-17.6735 31.9898l-18.112-31.9898z" filter="url(#aj)" transform="matrix(-.8907 0 0 .9072 -145.9025 48.1341)"/><path fill="url(#ak)" d="M263.8194 115.976a35.7854 37.0914 0 0 1-17.6735 31.99l-18.1119-31.99z" filter="url(#al)" transform="matrix(.8907 0 0 .9072 -145.9025 48.1341)"/><path fill="url(#am)" d="M-184.2424 132.0284a35.697 37.1833 0 0 1-17.6299 32.0691l-18.0672-32.069z" filter="url(#an)" transform="matrix(-.472 -.7693 .7546 -.482 -145.9025 48.1341)"/></g><g transform="translate(-.7836 -.2612)"><path fill="url(#ao)" d="M50.9987 26.0146c.942 3.0354.035 6.2473-2.1181 8.6318l.4582 1.4767c.3755 1.21-.2987 2.491-1.5088 2.8666l-6.563 2.0366c-1.2101.3755-2.4911-.2987-2.8666-1.5088l-.4583-1.4767c-3.1268-.7535-5.6928-2.8877-6.6326-5.9163-1.5-4.8334 1.694-10.1191 7.129-11.8057 5.435-1.6866 11.0603.8623 12.5602 5.6958zM38.344 33.539c2.9169-.9052 1.1055-6.969-1.8114-6.0638-2.917.9052-1.1056 6.969 1.8114 6.0638zm9.1657-5.2427c-.9012-2.9244-5.288-1.563-4.3754 1.3578.9012 2.9244 5.288 1.5631 4.3754-1.3578zm-1.004 18.4748c-.9697-.8115-1.3002-1.8936-.0524-1.6887l-.6277-.959.634 1.5199c.9126-.8753-.7237.3233.1516 1.2358.8753.9125 6.2357-3.3923 5.3231-2.517L47.2291 48.13l14.8965-1.33c1.2478.205-15.307-.9576-15.5118.2902-.2049 1.2477 16.0179 4.432 14.77 4.2271l-14.0391-2.2988L37.08 58.8593c-.9125.8753 10.0003-11.0112 9.125-11.9237-.8752-.9126-6.1228 5.1161-5.2103 4.2409l7.0619-3.655-9.1384-2.3564c4.9043.7611 11.4616 4.8478 7.5876 1.606z" filter="url(#ap)" transform="translate(5.9553 1)"/><circle cx="33" cy="56" r="4.3699" fill="url(#aq)"/><circle cx="22.804" cy="56.294" r="4.3699" fill="url(#ar)"/><circle cx="13" cy="56" r="4.3699" fill="url(#as)"/><g stroke="url(#at)" filter="url(#au)" transform="translate(-.693 -.693)"><rect width="36.0548" height="13.1348" x="70.1138" y="49.489" fill="url(#av)" stroke="url(#aw)" stroke-dasharray="21.96,.915" stroke-dashoffset=".4575" stroke-opacity=".876" stroke-width=".915" filter="url(#ax)" opacity=".6617" ry="6.1734"/><text xml:space="preserve" fill="url(#az)" stroke="url(#aA)" stroke-opacity=".3473" stroke-width="2" filter="url(#aB)" font-family="Century Gothic" font-size="12" font-weight="400" style="-inkscape-font-specification:&quot;Century Gothic, Normal&quot;;font-variant-ligatures:normal;font-variant-caps:normal;font-variant-numeric:normal;font-variant-east-asian:normal;text-align:center;white-space:pre;shape-inside:url(#ay);mix-blend-mode:normal" transform="translate(-50.4442 -44.46) scale(.5466)"><tspan x="237.6543" y="188.1035"><tspan stroke-width=".4912">218°C</tspan></tspan></text></g><path fill="#141414" d="m167.0996 194.0764 26.1489 24.8523 18.193-32.9775-15.5555 32.5489 36.9853 7.112-35.7626-4.736 4.6652 37.3728-6.5471-35.4758-34.1021 15.9858 31.7163-17.1893z" filter="url(#aC)" opacity=".4123" transform="translate(31.5508 -35.0587) scale(.2945)"/></g></svg>